<?xml version="1.0" encoding="UTF-8"?>
<svg width="1200px" height="1200px" viewBox="0 0 1200 1200" version="1.1" xmlns="http://www.w3.org/2000/svg" xmlns:xlink="http://www.w3.org/1999/xlink">
    <!-- Generator: Sketch 43.2 (39069) - http://www.bohemiancoding.com/sketch -->
    <title>planet</title>
    <desc>Created with Sketch.</desc>
    <defs>
        <linearGradient x1="106.352321%" y1="66.9642724%" x2="0%" y2="33.937229%" id="linearGradient-1">
            <stop stop-color="#021117" offset="0%"></stop>
            <stop stop-color="#01080A" offset="42.2393176%"></stop>
            <stop stop-color="#021117" offset="100%"></stop>
        </linearGradient>
        <linearGradient x1="50%" y1="1.42498406%" x2="50%" y2="100%" id="linearGradient-2">
            <stop stop-color="#0A181C" offset="0%"></stop>
            <stop stop-color="#030A0A" offset="100%"></stop>
        </linearGradient>
        <linearGradient x1="41.7101315%" y1="100%" x2="79.3370826%" y2="0%" id="linearGradient-3">
            <stop stop-color="#4B2123" offset="0%"></stop>
            <stop stop-color="#DEA77A" offset="100%"></stop>
        </linearGradient>
        <linearGradient x1="50%" y1="100%" x2="50%" y2="0%" id="linearGradient-4">
            <stop stop-color="#4B2123" offset="0%"></stop>
            <stop stop-color="#B38C64" offset="100%"></stop>
        </linearGradient>
        <linearGradient x1="100%" y1="100%" x2="68.698508%" y2="-9.94667306%" id="linearGradient-5">
            <stop stop-color="#4B2123" offset="0%"></stop>
            <stop stop-color="#B08862" offset="100%"></stop>
        </linearGradient>
        <linearGradient x1="50%" y1="0%" x2="50%" y2="100%" id="linearGradient-6">
            <stop stop-color="#0A181C" offset="1.42498406%"></stop>
            <stop stop-color="#030A0A" offset="100%"></stop>
        </linearGradient>
        <linearGradient x1="67.7635302%" y1="100%" x2="13.7911568%" y2="-4.97471994%" id="linearGradient-7">
            <stop stop-color="#532928" offset="0%"></stop>
            <stop stop-color="#A67E5C" offset="100%"></stop>
        </linearGradient>
        <linearGradient x1="100%" y1="105.739561%" x2="0%" y2="0%" id="linearGradient-8">
            <stop stop-color="#4B2123" offset="0%"></stop>
            <stop stop-color="#D9A377" offset="100%"></stop>
        </linearGradient>
        <linearGradient x1="50%" y1="0%" x2="50%" y2="100%" id="linearGradient-9">
            <stop stop-color="#001D29" offset="0%"></stop>
            <stop stop-color="#00090D" offset="100%"></stop>
        </linearGradient>
        <linearGradient x1="-11.1671261%" y1="50%" x2="111.502312%" y2="82.1040835%" id="linearGradient-10">
            <stop stop-color="#19120E" offset="0%"></stop>
            <stop stop-color="#2B2019" offset="100%"></stop>
        </linearGradient>
        <linearGradient x1="-18.8289245%" y1="54.0955548%" x2="41.0118146%" y2="58.8032194%" id="linearGradient-11">
            <stop stop-color="#879398" offset="0%"></stop>
            <stop stop-color="#0C0F0F" offset="100%"></stop>
        </linearGradient>
        <linearGradient x1="115.848517%" y1="41.8695846%" x2="22.1807441%" y2="61.1980061%" id="linearGradient-12">
            <stop stop-color="#A4B1B8" offset="0%"></stop>
            <stop stop-color="#222929" offset="100%"></stop>
        </linearGradient>
        <linearGradient x1="128.497747%" y1="54.6860097%" x2="40.1564349%" y2="60.7378914%" id="linearGradient-13">
            <stop stop-color="#AAB7BE" offset="0%"></stop>
            <stop stop-color="#212828" offset="100%"></stop>
        </linearGradient>
        <linearGradient x1="113.230863%" y1="34.8741413%" x2="0%" y2="50%" id="linearGradient-14">
            <stop stop-color="#263834" offset="0%"></stop>
            <stop stop-color="#090E0D" offset="100%"></stop>
        </linearGradient>
        <linearGradient x1="-29.1086217%" y1="39.3819799%" x2="88.8515627%" y2="61.6314269%" id="linearGradient-15">
            <stop stop-color="#253633" offset="0%"></stop>
            <stop stop-color="#030505" offset="100%"></stop>
        </linearGradient>
        <linearGradient x1="36.183336%" y1="33.7335272%" x2="98.7624838%" y2="66.7847847%" id="linearGradient-16">
            <stop stop-color="#BECCD4" offset="0%"></stop>
            <stop stop-color="#1D2323" offset="100%"></stop>
        </linearGradient>
        <linearGradient x1="0%" y1="40.7532711%" x2="90.5699047%" y2="54.3248276%" id="linearGradient-17">
            <stop stop-color="#283A36" offset="0%"></stop>
            <stop stop-color="#030504" offset="100%"></stop>
        </linearGradient>
        <linearGradient x1="-10.7972003%" y1="38.0862817%" x2="106.703922%" y2="54.9832582%" id="linearGradient-18">
            <stop stop-color="#D8E7F0" offset="0%"></stop>
            <stop stop-color="#2C3538" offset="100%"></stop>
        </linearGradient>
        <linearGradient x1="0%" y1="40.7532711%" x2="59.8839904%" y2="50%" id="linearGradient-19">
            <stop stop-color="#392C26" offset="0%"></stop>
            <stop stop-color="#1E1714" offset="100%"></stop>
        </linearGradient>
        <linearGradient x1="0%" y1="7.12913474%" x2="75.7089192%" y2="88.6986199%" id="linearGradient-20">
            <stop stop-color="#2F3233" offset="0%"></stop>
            <stop stop-color="#212628" offset="100%"></stop>
        </linearGradient>
        <linearGradient x1="0%" y1="7.12913474%" x2="75.7089192%" y2="88.6986199%" id="linearGradient-21">
            <stop stop-color="#5C6266" offset="0%"></stop>
            <stop stop-color="#23333A" offset="100%"></stop>
        </linearGradient>
        <linearGradient x1="50.0095189%" y1="0%" x2="50.0095189%" y2="103.258316%" id="linearGradient-22">
            <stop stop-color="#14191C" offset="0%"></stop>
            <stop stop-color="#0B1619" offset="99.9641263%"></stop>
        </linearGradient>
        <linearGradient x1="100%" y1="19.6348489%" x2="8.88558957%" y2="81.4073723%" id="linearGradient-23">
            <stop stop-color="#4B2123" offset="0%"></stop>
            <stop stop-color="#BC956A" offset="100%"></stop>
        </linearGradient>
        <linearGradient x1="50.0095189%" y1="2.18521811%" x2="50.0095189%" y2="103.110226%" id="linearGradient-24">
            <stop stop-color="#1B1B1C" offset="0%"></stop>
            <stop stop-color="#081519" offset="99.9641263%"></stop>
        </linearGradient>
        <linearGradient x1="84.7884671%" y1="54.8801462%" x2="50%" y2="28.715867%" id="linearGradient-25">
            <stop stop-color="#4B2123" offset="0%"></stop>
            <stop stop-color="#BC956A" offset="100%"></stop>
        </linearGradient>
    </defs>
    <g id="Artwork-v2" stroke="none" stroke-width="1" fill="none" fill-rule="evenodd">
        <g id="SVG" transform="translate(-360.000000, 0.000000)">
            <g id="planet" transform="translate(360.000000, 0.000000)">
                <rect id="forceBox" fill="#BBBBBB" opacity="0.00999999978" x="0.0406726426" y="0.399870637" width="1199.88814" height="1199.47524"></rect>
                <g id="body" transform="translate(111.580652, 99.891303)">
                    <path d="M500.497668,5.81776728 L476.992548,0.358555564 L459.597717,8.23220117 L421.355695,4.6116094 L400.826792,14.6116858 L383.107828,8.01649602 L354.052279,26.593611 L330.468911,25.4058957 L313.437014,39.1396325 L291.372871,36.8213957 L287.048825,42.9008385 C262.659385,45.3197924 255.942042,35.7709406 251.109727,34.0541423 C245.173965,31.9453172 207.539675,47.8811442 130.052591,115.638039 C82.772568,156.981026 72.1772278,191.095822 72.2066256,201.505614 C72.2360235,211.915407 80.1526275,209.695067 77.4771546,217.881437 C77.1950942,218.744481 76.8859451,219.761407 76.5585538,220.890177 L70.8907879,224.660104 L63.0662399,247.479658 L43.0597873,297.669314 L16.7861017,331.771534 L19.2194263,346.61322 L6.92822362,376.414302 L14.692599,381.762041 C5.13665418,419.871435 0.0624747093,459.757511 0.0624747093,500.828145 C0.0624747093,770.445921 218.737942,989.014313 488.487801,989.014313 C758.23766,989.014313 976.913127,770.445921 976.913127,500.828145 C976.913127,444.139012 967.245884,389.70668 949.469266,339.088252 L935.108408,290.866995 L921.156055,242.525855 L894.490407,226.861505 L879.097291,189.996416 L853.843591,159.917869 L850.270498,151.650733 L831.932462,143.268376 L818.083845,124.331487 L789.943811,113.680863 L758.954116,86.1780981 L747.972234,82.8449458 C738.278329,73.3115807 722.259968,60.3309348 723.001254,53.0516244 C724.966046,33.7576855 697.17223,30.6432337 660.229213,18.6397198 C623.286196,6.63620596 605.09175,-6.40202766 589.218755,9.58305537 C583.18293,15.6615025 560.763808,14.255148 546.088368,14.0785523 L500.497668,5.81776728 Z" id="round" fill="#030A09"></path>
                    <polygon id="planet-highlights" fill="#021117" points="421.03529 4.76768567 421.355695 4.6116094 456.113203 7.90230221 459.663326 8.44149028 429.384981 11.8169815"></polygon>
                    <polygon id="planet-highlights" fill="#021117" points="382.95965 8.1112358 383.107828 8.01649602 400.282193 14.4089801 389.13606 16.8439566"></polygon>
                    <polygon id="planet-highlights" fill="#021117" points="331.56624 25.4611598 353.679534 26.5748386 342.457203 31.8965375"></polygon>
                    <path d="M251.109727,34.0541423 C253.225683,34.8058876 258.062409,39.4344159 268.874213,42.0345674 C279.686018,44.6347189 298.488674,45.6758984 299.80046,45.9080347 C295.584606,51.1566064 264.104561,65.3471991 250.283043,70.8904083 C233.480249,77.6292771 247.982036,59.716541 243.245454,55.9429272 C238.508871,52.1693133 234.669076,52.4593403 234.669076,48.4859167 C234.669076,44.5124932 248.383204,37.314756 246.708849,35.6620279 C245.187606,34.1604339 217.151535,49.2531089 212.036728,52.0259709 C235.295819,37.0915132 247.883867,32.9080762 251.109727,34.0541423 Z" id="planet-highlights" fill="#010E12"></path>
                    <polygon id="planet-highlights" fill="#021117" opacity="0.584929813" points="541.704203 13.2841657 500.497668 5.81776728 476.992548 0.358555564 476.841302 0.427015987 488.419348 11.3378352"></polygon>
                    <g id="crater" transform="translate(601.397953, 1.612829)" fill="url(#linearGradient-1)">
                        <path d="M57.4373318,30.6665251 C57.4373318,30.6665251 119.629851,31.2096064 119.833454,24.7182134 C120.037057,18.2268204 90.145256,19.1641762 56.2305692,19.1641762 C22.3158824,19.1641762 0.273753816,16.5249928 -0.907997688,23.7095429 C-2.08974919,30.894093 57.4373318,30.6665251 57.4373318,30.6665251 Z" transform="translate(59.454563, 24.684229) rotate(18.000000) translate(-59.454563, -24.684229) "></path>
                    </g>
                    <path d="M421.647318,24.707216 L433.037232,25.3698849 L437.158784,26.3375368 C437.158784,26.3375368 434.786361,27.2164486 433.454065,27.3175517 C432.12177,27.4186549 423.878176,27.3453545 423.878176,27.3453545 L416.000617,26.0084277 L421.647318,24.707216 Z" id="planetdetail24" fill="#021117" opacity="0.5" transform="translate(426.579701, 26.039123) rotate(-6.000000) translate(-426.579701, -26.039123) "></path>
                    <path d="M399.800827,29.8077609 L414.19752,30.6453651 L419.407105,31.8684637 C419.407105,31.8684637 416.408395,32.979396 414.724391,33.107189 C413.040388,33.2349819 402.6206,33.1423312 402.6206,33.1423312 L392.663475,31.4524744 L399.800827,29.8077609 Z" id="planetdetail23" fill="#021117" opacity="0.699999988" transform="translate(406.035290, 31.491273) rotate(-6.000000) translate(-406.035290, -31.491273) "></path>
                    <polygon id="planetdetail22" fill="#021117" opacity="0.5" points="483.399587 18.8855907 501.914355 21.3660306 488.633746 22.3738482 474.830697 20.8589844"></polygon>
                    <polygon id="planetdetail21" fill="#021117" opacity="0.600000024" points="587.468588 42.7681663 617.845355 46.8377686 596.056156 48.4912726 574.495796 44.1942497"></polygon>
                    <polygon id="planetdetail20" fill="#021117" opacity="0.600000024" transform="translate(651.473827, 65.355203) rotate(16.000000) translate(-651.473827, -65.355203) " points="644.232972 61.7216332 667.221968 62.2570612 675.975929 67.1195808 651.344483 68.9887728 626.971726 64.1312335"></polygon>
                    <polygon id="planetdetail19" fill="#021117" opacity="0.600000024" transform="translate(756.793175, 145.842790) rotate(31.000000) translate(-756.793175, -145.842790) " points="749.55232 142.20922 772.541316 142.744648 781.295277 147.607167 756.663831 149.476359 732.291073 144.61882"></polygon>
                    <polygon id="planetdetail18" fill="#021117" opacity="0.600000024" transform="translate(783.582672, 185.620975) rotate(38.000000) translate(-783.582672, -185.620975) " points="771.428865 179.522012 810.015994 180.420731 824.709557 188.582491 783.365567 191.719938 742.455787 183.566537"></polygon>
                    <polygon id="planetdetail17" fill="#021117" opacity="0.600000024" transform="translate(743.289374, 103.993327) rotate(31.000000) translate(-743.289374, -103.993327) " points="738.740451 101.710609 753.18283 102.046981 758.682332 105.101763 743.208116 106.276045 727.896417 103.224393"></polygon>
                    <polygon id="planetdetail16" fill="#021117" opacity="0.600000024" transform="translate(789.789374, 127.493327) rotate(31.000000) translate(-789.789374, -127.493327) " points="785.240451 125.210609 799.68283 125.546981 805.182332 128.601763 789.708116 129.776045 774.396417 126.724393"></polygon>
                    <polygon id="planetdetail15" fill="#021117" opacity="0.600000024" transform="translate(789.789374, 145.493327) rotate(31.000000) translate(-789.789374, -145.493327) " points="785.240451 143.210609 799.68283 143.546981 805.182332 146.601763 789.708116 147.776045 774.396417 144.724393"></polygon>
                    <polygon id="planetdetail14" fill="#021117" opacity="0.600000024" transform="translate(814.111083, 176.559914) rotate(36.000000) translate(-814.111083, -176.559914) " points="798.671068 171.992129 835.725059 171.825033 827.461696 181.271254 811.873289 181.294796 792.497107 176.477773"></polygon>
                    <polygon id="planetdetail13" fill="#021117" opacity="0.600000024" points="441.654676 27.5 463.830765 28.1052467 472.031443 31.5696023 449.84054 31.9431138 438 30.884822"></polygon>
                    <polygon id="planetdetail12" fill="#021117" opacity="0.800000012" points="422.507673 34.1430151 436.287981 34.1430151 444.449909 36.7215569 432.008933 39.3000987 421.415068 39.3000987 418.265722 38.0717485"></polygon>
                    <polygon id="planetdetail11" fill="#021117" opacity="0.600000024" points="512.468588 27.7681663 542.845355 31.8377686 521.056156 33.4912726 500.644703 30.6297195"></polygon>
                    <polygon id="planetdetail10" fill="#021117" points="311.59008 53.7210772 331.063833 49.3286308 335.935986 50.5433404 312.493556 58.6739881"></polygon>
                    <polygon id="planetdetail9" fill="#021117" opacity="0.5" transform="translate(240.481971, 88.232597) rotate(-27.000000) translate(-240.481971, -88.232597) " points="230.04803 85.3710437 260.424797 89.4406461 238.635598 91.09415 220.539145 90.4705117"></polygon>
                    <polygon id="planetdetail8" fill="#021117" opacity="0.5" transform="translate(170.481971, 138.232597) rotate(-36.000000) translate(-170.481971, -138.232597) " points="160.04803 135.371044 190.424797 139.440646 168.635598 141.09415 150.539145 140.470512"></polygon>
                    <polygon id="planetdetail7" fill="#021117" opacity="0.5" transform="translate(221.144303, 125.272770) rotate(-30.000000) translate(-221.144303, -125.272770) " points="202.836352 118.031276 257.436936 125.346165 218.272039 128.318248 184.851669 132.514264"></polygon>
                    <polygon id="planetdetail6" fill="#021117" opacity="0.5" transform="translate(152.368240, 171.470388) rotate(-30.000000) translate(-152.368240, -171.470388) " points="133.599138 162.579758 188.229044 167.740127 149.034824 172.86673 123.333123 180.361018 116.507435 171.745774"></polygon>
                    <polygon id="planetdetail5" fill="#021117" opacity="0.5" transform="translate(220.107375, 157.583778) rotate(-30.000000) translate(-220.107375, -157.583778) " points="196.648345 151.89923 258.150406 150.400847 264.945595 161.049073 215.956105 164.766709 175.269155 163.364559"></polygon>
                    <polygon id="planetdetail4" fill="#021117" opacity="0.5" transform="translate(243.813813, 78.439178) rotate(-22.000000) translate(-243.813813, -78.439178) " points="229.682424 76.4109914 257.945203 78.7163863 235.259292 80.4673643"></polygon>
                    <polygon id="planetdetail3" fill="#021117" opacity="0.5" transform="translate(270.172658, 85.543031) rotate(-22.000000) translate(-270.172658, -85.543031) " points="261.245293 82.9376282 289.508072 85.2430232 261.740369 88.1484331 250.837243 83.7432843"></polygon>
                    <polygon id="planetdetail2" fill="#021117" opacity="0.600000024" transform="translate(344.745226, 41.384863) rotate(-16.000000) translate(-344.745226, -41.384863) " points="338.494937 39.7174294 355.17116 40.4491585 357.009705 42.1978693 332.480747 43.0522974 334.091639 41.2457599"></polygon>
                    <polygon id="planetdetail1" fill="#021117" opacity="0.600000024" transform="translate(356.871731, 43.728621) rotate(-16.000000) translate(-356.871731, -43.728621) " points="349.517042 41.6369428 369.568693 43.776481 371.717506 45.8202994 345.816534 45.675552 342.025955 43.670861"></polygon>
                </g>
                <g id="ground" transform="translate(372.270631, 137.606103)">
                    <path d="M348.718213,29.5031026 C348.718213,29.5031026 345.465341,28.937365 336.403707,26.9224603 C327.342073,24.9075556 282.390336,23.7967354 282.390336,23.7967354 L254.87228,17.2692315 C254.87228,17.2692315 272.702113,11.6935375 283.235676,8.83723076 C293.769239,5.98092397 307.384067,5.30360868 307.384067,5.30360868 C307.384067,5.30360868 229.853516,0.298727309 215.472956,0.298727309 C201.092396,0.298727309 212.173027,13.9093847 212.173027,13.9093847 L195.712056,1.31081225 C195.712056,1.31081225 166.515554,2.82387038 152.760386,4.42926688 C139.005218,6.03466338 120.535441,10.0848438 120.535441,10.0848438 L122.958042,20.5764568 L108.843637,21.518156 L99.6784021,13.9093847 C72.2728445,19.371281 21.5940711,34.4626885 16.3438324,37.0267717 C11.0935937,39.5908549 27.2968284,35.2178354 34.3406541,34.5370929 C41.3844798,33.8563504 53.3363603,33.2626059 53.3363603,33.2626059 L48.9246891,42.6739763 C48.9246891,42.6739763 -3.14400408,57.1676571 0.770500138,60.1193595 C4.68500436,63.0710619 32.2699972,55.6980036 51.540291,52.6174523 C70.8105848,49.536901 68.2631075,49.8026889 68.2631075,49.8026889 L67.2714374,52.6174523 L68.9144585,54.213702 C68.9144585,54.213702 63.7864456,54.2506895 47.5401525,59.0210583 C31.2938594,63.7914271 16.0802708,75.7455566 31.4240427,71.4238861 C46.7678146,67.1022156 87.1049942,57.8716766 87.1049942,57.8716766 L120.535441,72.4871547 L195.712056,83.7721455 L259.646105,121.989493 L236.681323,94.3563671 L331.795619,74.4917868 L348.718213,29.5031026 Z" id="fire" fill="#34191A"></path>
                    <path d="M326.349673,31.3492553 C313.806888,25.4612497 281.830907,23.5621634 281.830907,23.5621634 L256.296004,7.06975478 C256.296004,7.06975478 251.61931,5.41533229 232.057564,5.31344949 C212.495818,5.21156668 179.670078,7.71554289 159.965133,8.70164223 C140.260188,9.68774157 122.426668,12.450169 122.426668,12.450169 L122.426668,20.4555244 L108.717365,21.7332686 L102.528834,16.46214 C102.528834,16.46214 78.1693557,22.0445505 68.1046732,25.9596842 C66.3748724,26.6325719 63.7904583,27.8967485 60.7315163,29.5075595 L48.8964675,42.5986712 L30.2877296,48.1360168 C28.5553364,48.6515198 25.1584947,53.0340447 25.5535322,54.6658244 C25.7724299,55.5700239 28.588255,57.0523755 31.1028881,56.500175 C34.2032224,55.8193575 38.746176,54.8532172 43.576238,53.933096 C54.410286,51.8692223 66.6552535,49.8848633 66.9058972,50.0680277 C67.0856786,50.1994076 68.9822507,54.1806155 68.9822507,54.1806155 C68.9822507,54.1806155 60.571065,55.1932568 51.5143625,57.8071243 C46.9042598,59.1376525 42.8970225,60.6608049 40.0734166,61.835729 C37.3499533,62.9689831 38.8753082,65.3767777 40.6569437,66.1772141 C42.6259326,67.061823 52.4990712,66.1772141 52.4990712,66.1772141 C52.4990712,66.1772141 186.25681,101.170065 227.729369,98.5317023 C231.61327,98.28462 235.424376,97.8670749 239.153123,97.3048152 L236.446803,94.255879 L321.807776,58.5721721 C321.807776,58.5721721 331.694518,54.4314199 335.148973,48.591459 C338.603429,42.751498 338.892458,37.2372609 326.349673,31.3492553 Z" id="fire" fill="#55352C" opacity="0.5"></path>
                    <path d="M244.931783,34.7431771 C236.491474,34.7431771 225.280035,33.4144554 225.280035,33.4144554 L214.814792,31.061536 C214.814792,31.061536 190.493408,30.7973994 178.325898,31.061536 C166.158388,31.3256726 148.470537,32.5017606 148.470537,32.5017606 L142.756905,33.4144554 L133.765764,34.7431771 L128.617381,32.710548 C128.617381,32.710548 101.852935,36.8992034 100.193763,37.6853728 C98.5345906,38.4715422 114.049804,36.8343036 108.189484,38.4715422 C102.329164,40.1087808 92.7060394,40.0402816 87.7898741,42.1903424 C82.8737087,44.3404032 114.690179,41.341079 110.019557,42.1903424 C105.348934,43.0396058 95.2374118,46.2617152 92.3234133,47.2036731 C89.4094149,48.1456309 122.760312,46.3005711 122.760312,46.3005711 L142.756905,50.4562917 C142.756905,50.4562917 167.352216,51.825468 176.674595,52.6124554 C185.996974,53.3994428 204.92423,56.7747178 210.980067,56.9136422 C217.035904,57.0525666 205.783301,53.3994428 210.980067,53.3994428 C216.176833,53.3994428 258.067132,48.670318 272.984673,46.3005711 C287.902215,43.9308242 253.372091,34.7431771 244.931783,34.7431771 Z" id="fire" fill="#7D5642"></path>
                    <polygon id="fire" fill="#492B25" points="231.974609 43.2305441 214.900692 39.9620123 205.437211 37.5530271 199.534353 36.2258771 190.958472 37.0382271 186.791995 37.1559924 182.720082 36.2258771 162.113276 37.0382271 158.890536 37.5530271 153.819137 38.3024846 150.915223 37.1559924 134.883052 39.9620123 139.392991 40.4054465 132.265289 41.8278339 127.554149 43.8387194 138.66811 43.0397838 138.683586 43.9762643 130.327083 45.4378516 147.611578 44.8213631 157.68142 48.3815434 166.218259 47.594765 171.537652 49.4132335 178.021605 48.3815434 190.958472 50.6865149 197.3714 48.8254389 225.166467 46.5984952"></polygon>
                </g>
                <g id="rock5" transform="translate(622.844655, 107.167180)">
                    <polygon id="base" fill="url(#linearGradient-2)" points="0.451625245 49.3573533 5.96872565 25.9883931 16.692581 14.9485778 19.1549118 14.2843979 23.3947253 2.49061679 42.7912106 0.409330423 47.2073301 18.3374628 42.7912106 51.0587302 31.2055111 54.2906939"></polygon>
                    <polygon id="face" fill="#3F3328" points="0.451625245 49.3573533 5.96872565 25.9883931 16.7329088 14.8540731 20.479777 16.5335989 18.7658811 15.4148196 23.3947253 2.49061679 42.7912106 0.409330423 44.4552154 15.4148196 43.5902245 17.9817269 39.6630631 17.4854069 44.4552154 19.4335674 37.5321736 35.9985123 30.7956512 34.2685069 38.5735319 38.8923813 31.2055111 54.2906939"></polygon>
                    <path d="M31.5025771,1.62062612 L42.7912106,0.409330423 L44.4552154,15.4148196 L43.5902245,17.9817269 L40.1714262,17.5496545 C39.5921702,10.7471835 36.5192767,4.91759925 31.5025771,1.62062612 Z M40.1835718,17.69701 L44.4552154,19.4335674 L37.5321736,35.9985123 L33.9037461,35.0666963 C37.8331386,31.2205645 40.271499,25.8581166 40.271499,19.9263551 C40.271499,19.1734218 40.2419623,18.4296612 40.1835718,17.69701 Z M33.218254,35.7087207 L38.5735319,38.8923813 L31.2055111,54.2906939 L14.7651375,51.6534349 C21.1922969,48.811649 26.121212,46.1364892 27.165599,44.2672712 C27.9211192,42.9150601 27.2392853,41.4800342 25.6999453,40.0593483 C28.511728,39.1354221 31.0637812,37.6392784 33.218254,35.7087207 Z" id="fire" fill="url(#linearGradient-3)"></path>
                    <g id="highlights" opacity="0.400000006" transform="translate(30.851265, 0.150672)" fill="#EFC082">
                        <polygon id="highlight3" points="8.98730939 17.3955855 13.184685 19.9320233 13.5690001 19.3627187"></polygon>
                        <polygon id="highlight2" points="0.158582986 34.2538973 7.22841377 39.6202288 7.52637411 38.6726106"></polygon>
                        <polygon id="highlight1" points="11.8641495 0.285036 1.24256296 1.437188 2.4197144 2.10993593"></polygon>
                    </g>
                </g>
                <g id="rock4" transform="translate(564.881592, 111.821208)">
                    <polygon id="base" fill="#0D0A06" transform="translate(10.106612, 20.331281) scale(-1, 1) translate(-10.106612, -20.331281) " points="13.8717591 40.5852534 19.869624 13.4156018 18.6451481 1.56147431 5.8421382 0.077308572 0.343599054 10.0504152 0.514096862 39.731012"></polygon>
                    <path d="M13.8717591,40.5852534 L16.8016702,27.3130862 L3.84756958,24.7259277 L17.1186719,25.8771047 L19.869624,13.4156018 L18.6451481,1.56147431 L5.8421382,0.077308572 L0.970253096,8.91380648 C0.970253096,8.91380648 9.01440288,9.86067602 8.90979271,10.0504152 C8.80518254,10.2401544 0.343599054,10.0504152 0.343599054,10.0504152 L0.514096862,39.731012 L13.8717591,40.5852534 Z" id="face" fill="#3A3934" transform="translate(10.106612, 20.331281) scale(-1, 1) translate(-10.106612, -20.331281) "></path>
                    <path d="M13.8717591,40.5852534 L16.8016702,27.3130862 L3.84756958,24.7259277 L17.1186719,25.8771047 L19.869624,13.4156018 L18.6451481,1.56147431 L5.8421382,0.077308572 L0.970253096,8.91380648 C0.970253096,8.91380648 9.01440288,9.86067602 8.90979271,10.0504152 C8.80518254,10.2401544 0.343599054,10.0504152 0.343599054,10.0504152 L0.514096862,39.731012 L13.8717591,40.5852534 Z" id="fire" fill="url(#linearGradient-4)" transform="translate(10.106612, 20.331281) scale(-1, 1) translate(-10.106612, -20.331281) "></path>
                    <g id="highlights" opacity="0.400000006" transform="translate(3.297082, 9.887842)" fill="#EFC082">
                        <polygon id="highlight2" points="16.6015227 0.120637906 5.51589032 0.31111272 16.5255186 2.36251586"></polygon>
                        <polygon id="highlight1" points="0.191011339 17.4637407 13.7982105 14.7313636 0.72021162 19.5773397"></polygon>
                    </g>
                </g>
                <g id="rock3" transform="translate(485.222713, 138.334192) rotate(7.000000) translate(-485.222713, -138.334192) translate(472.976409, 116.910535)">
                    <polygon id="base" fill="#0D0A08" points="24.3726776 39.9168062 23.3037488 26.6872173 22.2000061 25.6976469 20.7379065 9.80326184 19.6555128 9.04508171 18.5740388 1.96731998 5.77102894 0.483154244 0.272489799 10.4562609 4.74221083 26.3299207 4.24557185 27.8235066 10.5558003 42.8012844"></polygon>
                    <polygon id="face" fill="#2A2926" points="24.3726776 39.9168062 23.188945 25.7525373 19.0737294 27.2064196 21.6177014 24.8203492 20.7379065 9.80326184 8.38768225 12.4137282 17.5728057 8.15757101 18.5740388 1.96731998 5.77102894 0.483154244 0.272489799 10.4562609 5.76133988 24.7099558 15.9833616 24.1022348 4.24557185 27.8235066 10.5558003 42.8012844"></polygon>
                    <polygon id="fire" fill="url(#linearGradient-5)" points="24.3726776 39.9168062 23.188945 25.7525373 19.0737294 27.2064196 21.6177014 24.8203492 20.7379065 9.80326184 8.38768225 12.4137282 17.5728057 8.15757101 18.5740388 1.96731998 5.77102894 0.483154244 0.272489799 10.4562609 5.76133988 24.7099558 15.9833616 24.1022348 4.24557185 27.8235066 10.5558003 42.8012844"></polygon>
                    <g id="highlights" opacity="0.400000006" transform="translate(2.826070, 0.000000)" fill="#EFC082">
                        <polygon id="highlight4" points="1.67679897 27.9289258 2.09117597 29.4919995 12.9019558 24.3842933"></polygon>
                        <polygon id="highlight3" points="20.3444085 25.9292258 13.4491733 28.0752764 20.5102201 27.2791886"></polygon>
                        <polygon id="highlight2" points="18.1757394 11.1142128 4.07899973 12.9128092 17.9672586 9.70294747"></polygon>
                        <polygon id="highlight1" points="15.6200536 1.9935519 3.12451241 0.41153181 0.225715268 5.48643749 3.64654378 1.60482467"></polygon>
                    </g>
                </g>
                <g id="rock2" transform="translate(394.381771, 107.397737)">
                    <polygon id="base" fill="url(#linearGradient-6)" points="46.8074516 65.2467707 40.7858469 49.4160093 39.2633187 47.8898656 36.6417456 38.5211926 35.0748647 38.0124378 23.2050469 8.16809947 22.4362838 8.16809947 21.1170112 5.0782873 6.68172784 0.0620957132 0.124902906 36.4185511 6.68172784 72.7750065 26.7445897 72.7750065"></polygon>
                    <polygon id="face" fill="#2A2926" points="46.8074516 65.2467707 40.9368586 49.2912327 22.4309078 49.2912327 39.4087718 47.9186388 36.7230853 38.4806351 26.7445897 38.0374995 35.189772 38.0374995 23.2246668 8.15550856 13.5037075 8.15550856 21.8960572 6.90285763 21.1170112 5.0782873 6.68172784 0.0620957132 5.67992489 16.9355456 9.68246724 16.9355456 7.86764546 17.59149 12.7820318 25.1814369 23.2246668 25.1814369 11.6374872 26.2610771 15.1041638 28.7678171 15.1041638 33.9608436 15.1041638 35.0563106 15.1041638 35.9296078 15.1041638 51.3496336 23.2246668 66.2962348 39.9948352 62.7153509 21.8181013 67.175087 26.7445897 72.7750065"></polygon>
                    <polygon id="fire" fill="url(#linearGradient-7)" points="46.8074516 65.2467707 40.9368586 49.2912327 22.4309078 49.2912327 39.4087718 47.9186388 36.7230853 38.4806351 26.7445897 38.0374995 35.189772 38.0374995 23.2246668 8.15550856 13.5037075 8.15550856 21.8960572 6.90285763 21.1170112 5.0782873 6.68172784 0.0620957132 5.67992489 16.9355456 9.68246724 16.9355456 7.86764546 17.59149 12.7820318 25.1814369 23.2246668 25.1814369 11.6374872 26.2610771 15.1041638 28.7678171 15.1041638 33.9608436 15.1041638 35.0563106 15.1041638 35.9296078 15.1041638 51.3496336 23.2246668 66.2962348 39.9948352 62.7153509 21.8181013 67.175087 26.7445897 72.7750065"></polygon>
                    <g id="highlights" opacity="0.400000006" transform="translate(5.652140, 8.004443)" fill="#EFC082">
                        <polygon id="highlight6" points="8.16137633 0.180059957 17.6136739 0.163306331 17.9199983 1.21630272"></polygon>
                        <polygon id="highlight5" points="0.097093283 7.31357082 0.097093283 9.00273849 8.16472261 8.40666019"></polygon>
                        <polygon id="highlight4" points="6.16762931 18.2534989 17.5193247 17.2029846 8.39522543 20.0168063"></polygon>
                        <polygon id="highlight3" points="31.0097048 30.469374 31.3560656 31.7348933 21.5670284 30.1923187"></polygon>
                        <polygon id="highlight2" points="35.2700045 41.3710202 35.8084776 42.8987027 22.315925 41.3710202"></polygon>
                        <polygon id="highlight1" points="16.3786819 59.1522138 30.2780485 56.3296167 17.4256447 60.6001258"></polygon>
                    </g>
                </g>
                <g id="rock1" transform="translate(404.881544, 141.699380)">
                    <polygon id="base" fill="url(#linearGradient-6)" points="37.9056368 47.0689852 32.6973969 33.4715218 31.9929838 33.5084258 22.5627529 11.8803668 21.8027109 12.2502142 18.6387302 5.40885381 8.77787667 0.480715433 0.153310756 8.48141303 24.599193 50.7245856 36.2782957 50.1127203"></polygon>
                    <polygon id="face" fill="#3F3E39" points="37.9794669 47.2286254 32.7037512 33.4846672 32.0127594 33.5208681 22.5512119 11.7841574 18.5878416 13.4348508 21.2783026 11.1163052 18.6387302 5.40885381 8.77787667 0.480715433 9.1542456 7.65979121 13.6119008 12.6470185 16.7160324 11.3553213 14.2340053 15.5581995 21.8224774 26.1694707 26.1819751 24.7839376 21.248848 28.5760073 36.4514659 50.103648"></polygon>
                    <polygon id="fire" fill="url(#linearGradient-8)" points="37.9794669 47.2286254 32.7037512 33.4846672 32.0127594 33.5208681 22.5512119 11.7841574 18.5878416 13.4348508 21.2783026 11.1163052 18.6387302 5.40885381 8.77787667 0.480715433 9.1542456 7.65979121 13.6119008 12.6470185 16.7160324 11.3553213 14.2340053 15.5581995 21.8224774 26.1694707 26.1819751 24.7839376 21.248848 28.5760073 36.4514659 50.103648"></polygon>
                    <g id="highlights" opacity="0.400000006" transform="translate(8.667581, 0.029385)" fill="#EFC082">
                        <polygon id="Path-9" points="0.503134238 7.7581835 0.172182088 0.420355785 7.74136071 4.29424392 1.15433773 2.59873307"></polygon>
                        <polygon id="Path-18" points="5.52021735 15.5783527 7.98128649 11.4090816 6.38004432 16.7284472"></polygon>
                        <polygon id="Path-19" points="14.5218234 13.3123458 13.9199416 11.8160491 10.0054831 13.3123458"></polygon>
                        <polygon id="Path-20" points="12.5660764 28.529253 13.4722306 29.735672 17.5856207 24.7248712"></polygon>
                        <polygon id="Path-21" points="24.1338386 33.2802885 26.6925838 41.183412 23.5765875 34.3896197 21.0470636 33.2802885"></polygon>
                    </g>
                </g>
                <g id="bobby" transform="translate(576.594946, 108.405303)">
                    <path d="M48.2098529,41.7523038 C48.2098529,41.7523038 38.7674559,43.0342203 33.3374754,44.9602004 C30.1094564,46.1051585 25.0628094,48.2518462 21.8347904,49.3968043 C18.6067714,50.5417624 8.41251408,55.8681706 8.41251408,55.8681706 C8.41251408,55.8681706 6.34590289,63.9203681 9.99680937,66.3820864 C10.7568537,66.8945659 16.4412218,64.7142302 16.1543935,65.2554753 C15.8675652,65.7967204 14.363346,67.0638706 14.363346,67.0638706 C14.363346,67.0638706 35.9585399,63.8081253 40.9087133,61.6058233 C45.8588867,59.4035213 44.5570666,58.2676386 47.1755305,56.895344 C49.7939943,55.5230494 53.3957327,53.9460148 56.2513,52.6826758 C64.2072671,49.1628555 72.0861332,45.2807776 73.4153083,43.0291481 C74.1704134,41.6776799 73.4871898,40.2430927 71.9456211,38.8225502 C80.4096534,36.043239 86.5212083,28.079205 86.5212083,18.688232 C86.5212083,10.9017727 83.3623646,4.0963027 77.7997724,0.413824918 L69.6364411,1.21822325 L65.0022979,14.1844436 L66.7129415,15.2841841 L62.9773996,13.6114635 L52.2278202,24.6917943 L48.2098529,41.7523038 Z" id="shadow" fill="#040B0C" opacity="0.827672101"></path>
                    <g id="backpack" transform="translate(12.168650, 35.847267)">
                        <path d="M19.5864301,21.9316222 L19.0603235,6.27649463 C19.0603235,3.0840481 18.9966054,1.26636794 17.3203612,1.26636794 L7.22119099,0.505371411 C5.542242,0.505371411 5.06072811,3.08919129 5.06072811,6.27649463 L4.54601351,23.3227709 C4.54601351,26.5152174 19.5864301,25.1189255 19.5864301,21.9316222 Z" fill="#7E9C9E" transform="translate(12.066222, 12.817872) rotate(2.000000) translate(-12.066222, -12.817872) "></path>
                        <path d="M15.5491871,23.8027589 L15.0230804,8.14763132 C15.0230804,4.9551848 14.9593624,3.13750464 13.2831182,3.13750464 L3.18394799,2.3765081 C1.50499899,2.3765081 1.0234851,4.96032798 1.0234851,8.14763132 L0.508770507,25.1939076 C0.508770507,28.3863541 15.5491871,26.9900622 15.5491871,23.8027589 Z" id="backpack_shade" fill="#172C2E" transform="translate(8.028979, 14.689009) rotate(2.000000) translate(-8.028979, -14.689009) "></path>
                    </g>
                    <g id="body" transform="translate(3.825014, 34.243435)">
                        <path d="M11.0856992,27.9454336 C14.3913826,27.6417779 15.5574769,26.6352137 17.4751676,25.3732263 C19.3928583,24.1112389 22.5287158,26.4687571 22.5287158,23.032806 C22.5287158,19.5211407 15.4451519,20.6037818 9.71627271,21.4507231 C3.98739354,22.2976644 0.736041937,18.0010765 0.736041937,18.9786722 C0.736041937,25.6219596 4.23870743,28.5743892 11.0856992,27.9454336 Z" id="lowerbody-copy" fill="#7E9C9E"></path>
                        <path d="M13.861201,0.174465264 C16.5418252,0.174465264 19.243071,2.93428563 21.1147424,6.69075796 C22.9864138,10.4472303 22.4872214,22.6847857 22.4872214,22.6847857 C22.4872214,22.6847857 17.4951194,25.0485049 6.25968581,24.7632409 C-4.9757478,24.4779769 2.37831183,12.8937217 5.79866269,7.77595854 C8.19845493,4.18522506 11.331388,0.174465264 13.861201,0.174465264 Z" id="upperbody" fill="#A7C2C5"></path>
                    </g>
                    <g id="legs" transform="translate(0.326070, 53.756718)">
                        <path d="M1.64715696,8.08774765 C0.798874691,7.29547913 0.269149534,6.17061341 0.269149534,4.92287154 C0.269149534,2.52390665 2.22731273,0.579161358 4.64282946,0.579161358 C7.05834618,0.579161358 7.43827179,3.08248699 8.43271711,4.92287154 C8.88949003,5.76820492 9.47570334,6.38555371 9.97607738,6.8778314 C10.5650732,7.45729686 12.0377968,10.4671247 10.7355721,11.5671271 C9.43334744,12.6671295 2.33465756,8.72985124 1.64715696,8.08774765 Z" id="chin" fill="#C1D9DC"></path>
                        <path d="M2.02933966,8.70587845 C1.18105739,7.91360993 0,6.17061341 0,4.92287154 C0,2.52390665 2.22731273,0.579161358 4.64282946,0.579161358 C7.05834618,0.579161358 7.42789289,2.82480724 8.42233822,4.66519179 C8.61576194,5.02315419 4.28941577,6.25445374 3.08593661,7.26651066 C1.88245746,8.27856757 2.42571327,9.07607874 2.02933966,8.70587845 Z" id="cap" fill="#28393A"></path>
                        <path d="M15.8200087,8.42694761 C14.8217225,7.49458016 14.1983246,6.17080146 14.1983246,4.7024181 C14.1983246,1.87923792 15.9644559,0.12520867 18.8071148,0.12520867 C21.6497737,0.12520867 21.7425901,3.58776629 23.5995097,5.05757581 C25.4564293,6.52738533 29.770477,7.73799116 29.5313727,10.9972292 C29.2922685,14.2564673 16.6290819,9.18259606 15.8200087,8.42694761 Z" id="chin" fill="#C1D9DC" transform="translate(21.869623, 6.102020) scale(-1, 1) translate(-21.869623, -6.102020) "></path>
                        <path d="M22.9449591,9.01018266 C21.5528235,8.28839209 20.799811,6.17080146 20.799811,4.7024181 C20.799811,3.53653287 21.1010127,2.55298406 21.654848,1.80000697 C22.4421196,0.729657095 23.7398717,0.12520867 25.4086012,0.12520867 C28.2512601,0.12520867 28.5819323,1.64881414 29.7870689,3.80300359 C30.156038,4.46253814 25.9877268,5.43426408 24.3370947,6.76436267 C22.6864625,8.09446125 24.3370947,9.73197323 22.9449591,9.01018266 Z" id="cap" fill="#304547" transform="translate(25.304941, 4.656029) scale(-1, 1) translate(-25.304941, -4.656029) "></path>
                        <path d="M13.3839554,13.6325673 C14.5144564,13.6325673 15.4309085,12.615316 15.4309085,11.3604728 C15.4309085,10.1056296 16.1505599,8.5079315 15.0200589,8.5079315 C13.889558,8.5079315 12.3790643,10.1056296 12.3790643,11.3604728 C12.3790643,12.615316 12.2534545,13.6325673 13.3839554,13.6325673 Z" id="foot" fill="#EBF9FA"></path>
                        <path d="M9.41186781,12.8126927 C10.400433,12.8126927 11.2018235,11.9231584 11.2018235,10.8258623 C11.2018235,9.72856618 10.400433,8.83903191 9.41186781,8.83903191 C8.4233026,8.83903191 8.53314193,9.72856618 8.53314193,10.8258623 C8.53314193,11.9231584 8.4233026,12.8126927 9.41186781,12.8126927 Z" id="foot" fill="#EBF9FA" transform="translate(9.865667, 10.825862) scale(-1, 1) rotate(-26.000000) translate(-9.865667, -10.825862) "></path>
                    </g>
                    <g id="arms" transform="translate(1.671818, 40.391456)">
                        <path d="M7.94936559,1.59196522 C7.14591341,1.56138652 2.1542217,7.72898403 0.589821235,11.7753007 C-0.31776455,14.1227684 3.23787048,13.4836879 3.64639967,12.630447 C3.64639967,12.630447 4.47686714,9.21340555 5.60050015,6.54879878 C6.72413316,3.88419201 8.1825351,1.60083945 7.94936559,1.59196522 Z" id="upper" fill="#7E9C9E"></path>
                        <path d="M25.117791,0.215236623 C24.6070311,0.19579754 23.6209798,0.661995637 22.9316775,3.14334886 C22.0382895,6.3593707 23.5053772,9.85479945 25.117791,6.07054324 C26.1151012,3.72990486 25.6423155,0.23519958 25.117791,0.215236623 Z" id="cap" fill="#304547" transform="translate(24.181134, 3.965514) scale(-1, 1) translate(-24.181134, -3.965514) "></path>
                        <path d="M27.9437137,1.2817705 C26.6741393,1.23345159 20.8219963,12.279883 24.4571847,13.8629422 C28.0923732,15.4460014 28.8251293,9.98407601 28.2837149,6.14224204 C27.8764397,3.25224994 28.4682382,1.30173346 27.9437137,1.2817705 Z" id="upper" fill="#B4CACC" transform="translate(25.863244, 7.712561) scale(-1, 1) translate(-25.863244, -7.712561) "></path>
                        <path d="M3.44821343,11.4974082 C5.40000917,11.9740879 2.05415093,15.2946395 2.05415093,15.2946395 C2.05415093,15.2946395 0.378526149,15.0312523 0.176750146,13.0249245 C-0.0250258563,11.0185967 1.49641769,11.0207285 3.44821343,11.4974082 Z" id="cap" fill="#28393A"></path>
                        <path d="M28.5086196,10.0638756 C30.8381823,10.6441814 26.734035,14.2289007 26.734035,14.2289007 C26.734035,14.2289007 22.9383655,14.7015302 22.9383655,12.2971573 C22.9383655,9.89278439 26.179057,9.48356985 28.5086196,10.0638756 Z" id="cap" fill="#304547" transform="translate(26.081271, 12.048061) scale(-1, 1) translate(-26.081271, -12.048061) "></path>
                        <path d="M26.04959,10.4870107 C28.3791527,11.0673165 28.8425912,12.8078155 28.3890901,14.7883308 C27.935589,16.768846 24.3857089,15.1097271 24.3857089,15.1097271 C24.3857089,15.1097271 19.2847336,14.461877 19.8023582,12.44902 C20.3199827,10.4361631 23.7200273,9.90670495 26.04959,10.4870107 Z" id="lower" fill="#C1D9DC" transform="translate(24.155317, 13.013036) scale(-1, 1) translate(-24.155317, -13.013036) "></path>
                        <path d="M21.39984,17.642146 C23.174016,17.642146 24.6122699,16.185213 24.6122699,14.3879952 C24.6122699,12.5907774 23.174016,11.1338444 21.39984,11.1338444 C19.6256639,11.1338444 17.7129284,13.7700198 18.9831525,14.7512802 C20.2533766,15.7325407 19.6256639,17.642146 21.39984,17.642146 Z" id="hand" fill="#EBF9FA" transform="translate(21.591794, 14.387995) scale(-1, 1) translate(-21.591794, -14.387995) "></path>
                        <path d="M25.9583969,3.69766579 C25.7195506,3.53112931 24.7851012,3.77763855 24.6707435,3.97930329 C24.5508188,4.19078496 24.5677639,6.43460832 25.0131583,6.72743253 C25.4585527,7.02025673 26.8965415,6.72743253 27.1775129,6.62327013 C27.4584843,6.51910774 26.1972433,3.86420226 25.9583969,3.69766579 Z" id="patch" fill="#2A2D2E"></path>
                    </g>
                    <g id="head" transform="translate(1.701862, 16.125488)">
                        <path d="M15.6722208,25.2756107 C21.8974462,25.2756107 22.7511844,24.9283778 24.5168887,22.904616 C27.817063,20.5510514 30.144072,17.0052488 30.144072,13.0391476 C30.144072,5.9529744 22.7156934,0.208496006 15.5806286,0.208496006 C8.4455638,0.208496006 1.20036964,5.9529744 1.20036964,13.0391476 C1.20036964,17.4233204 3.97370141,21.2939163 7.77843985,23.6082455 C8.59280947,25.2756107 12.9506525,25.2756107 15.6722208,25.2756107 Z" id="helmet" fill="#C1D9DC"></path>
                        <path d="M16.1124705,26.3708044 C21.560757,25.7350911 23.8462377,25.5269091 24.5168887,22.904616 C24.5168887,22.904616 23.4941625,24.7534533 15.5806286,24.7534533 C7.66709466,24.7534533 7.77843985,23.6082455 7.77843985,23.6082455 C7.1423629,26.551043 10.664184,27.0065178 16.1124705,26.3708044 Z" id="neck" fill="#304547"></path>
                        <path d="M8.43220743,22.6706302 C19.2554621,22.6706302 28.2308411,15.9779311 28.2308411,14.0359989 C28.2308411,7.09590542 17.6315627,2.45688428 10.6803184,1.92074006 C9.77666228,1.85104175 8.8012014,1.88083351 7.79348483,2.00253735 C3.5725947,4.23921734 0.392921034,8.34476997 0.392921034,13.0391476 C0.392921034,16.5528762 2.1743271,19.7367167 4.84038976,22.0538887 C6.21077023,22.4602059 7.4727751,22.6706302 8.43220743,22.6706302 Z" id="visor" fill="url(#linearGradient-9)"></path>
                        <path d="M8.43220743,22.6706302 C19.2554621,22.6706302 28.2308411,15.9779311 28.2308411,14.0359989 C28.2308411,10.3204404 27.6272121,17.0245856 17.8506017,20.1258527 C8.07399121,23.2271198 4.14418018,21.4090416 4.14418018,21.4090416 C4.36868267,21.6307208 4.60096901,21.8457994 4.84038976,22.0538887 C6.21077023,22.4602059 7.4727751,22.6706302 8.43220743,22.6706302 Z" id="visor_rim" fill="#101119"></path>
                        <g id="masked_content_visor" transform="translate(-0.000000, 1.500000)" fill="#FFFFFF">
                            <path d="M4.84038779,20.553888 C6.21077023,20.9602059 7.4727751,21.1706302 8.43220743,21.1706302 C19.2554621,21.1706302 28.2308411,14.4779311 28.2308411,12.5359989 C28.2308411,5.59590542 17.6315627,0.956884279 10.6803184,0.420740057 C9.77666228,0.351041746 8.8012014,0.380833509 7.79348483,0.502537353 C3.5725947,2.73921734 0.392921034,6.84476997 0.392921034,11.5391476 C0.392921034,15.0528762 2.1743271,18.2367167 4.84038976,20.5538887 L4.84038779,20.553888 Z" id="visor-mask"></path>
                        </g>
                        <g id="hinge" transform="translate(23.924264, 6.089211)">
                            <path d="M1.07659813,13.8998726 C2.56306996,13.8998726 5.65214021,10.7882801 5.65214021,6.94993629 C5.65214021,3.11159247 2.56306996,0 1.07659813,0 C-0.409873694,0 0.269149534,3.11159247 0.269149534,6.94993629 C0.269149534,10.7882801 -0.409873694,13.8998726 1.07659813,13.8998726 Z" id="hinge4" fill="#456366"></path>
                            <path d="M1.52552048,0.0776658244 C3.10704767,0.580650354 5.65214021,3.46590721 5.65214021,6.94993629 C5.65214021,10.4339654 3.10704767,13.3192222 1.52552048,13.8222068 C0.517149235,13.3192222 1.07659813,10.4339654 1.07659813,6.94993629 C1.07659813,3.46590721 0.517149235,0.580650354 1.52552048,0.0776658244 L1.52552048,0.0776658244 Z" id="hinge3" fill="#304547"></path>
                            <path d="M2.51322767,11.4795127 C3.48202615,11.4795127 4.79921961,9.45155228 4.79921961,6.94993629 C4.79921961,4.4483203 3.48202615,2.42035986 2.51322767,2.42035986 C1.54442918,2.42035986 1.98697822,4.4483203 1.98697822,6.94993629 C1.98697822,9.45155228 1.54442918,11.4795127 2.51322767,11.4795127 Z" id="hinge2" fill="#456366"></path>
                            <path d="M2.16387826,11.3455117 C1.66826319,10.8547331 1.98697822,9.07289336 1.98697822,6.94993629 C1.98697822,4.82697923 1.66826319,3.04513947 2.16387826,2.55436084 C3.04315446,3.04513947 3.99177101,4.82697923 3.99177101,6.94993629 C3.99177101,9.07289336 3.04315446,10.8547331 2.16387826,11.3455117 L2.16387826,11.3455117 Z" id="hinge1" fill="#C1D9DC"></path>
                        </g>
                    </g>
                    <g id="box" transform="translate(5.036187, 42.230712)">
                        <path d="M10.5706366,1.76456381 C10.5706366,1.76456381 10.0087543,1.24161294 8.63559872,1.31785597 C7.26244316,1.39409899 2.82652234,0.546216982 2.20788021,1.16576225 C1.89384326,1.48025766 2.70839507,3.59581854 2.86346129,5.75650646 C3.01852751,7.91719437 2.49306279,9.99203243 2.95033065,10.477511 C3.82729577,11.4085797 8.69565436,11.9055279 11.1967367,12.0176985 C12.013883,12.0543466 10.5706366,1.76456381 10.5706366,1.76456381 Z" id="box-copy" fill="#51696B" transform="translate(6.791887, 6.477789) scale(-1, 1) rotate(-9.000000) translate(-6.791887, -6.477789) "></path>
                        <path d="M9.7284323,11.254706 C10.9266165,10.6719131 9.18302263,2.37604154 8.23542126,1.56388688 C7.81968718,1.20757633 7.73750394,1.63073366 6.50176519,1.69934676 C5.26602643,1.76795986 1.7524901,1.08019076 1.1957578,1.63773582 C0.913147694,1.9207585 1.64618427,3.82460731 1.78573243,5.76906712 C1.9252806,7.71352693 1.45240109,9.5807282 1.86390845,10.0176231 C2.91095879,11.1292703 9.39953174,11.4146821 9.7284323,11.254706 Z" fill="#C1D9DC" transform="translate(5.632986, 6.356923) scale(-1, 1) rotate(-9.000000) translate(-5.632986, -6.356923) "></path>
                    </g>
                    <g id="front-hand" transform="translate(2.210117, 51.647704)">
                        <path d="M3.71736296,0.508465183 C5.6691587,0.985144927 7.62685868,2.15241031 7.24689833,3.77926213 C6.86693798,5.40611395 2.32330046,4.30569647 2.32330046,4.30569647 C2.32330046,4.30569647 0.0122142561,3.68939968 0.44589968,2.03598146 C0.879585104,0.382563239 1.76556723,0.03178544 3.71736296,0.508465183 Z" id="lower" fill="#C1D9DC"></path>
                        <path d="M5.65214021,7.18781343 C7.13861204,7.18781343 8.34363555,5.9910471 8.34363555,4.51476101 C8.34363555,3.03847493 7.13861204,1.84170859 5.65214021,1.84170859 C4.16566838,1.84170859 2.5631062,4.00713834 3.62734802,4.81317373 C4.69158984,5.61920912 4.16566838,7.18781343 5.65214021,7.18781343 Z" id="hand" fill="#EBF9FA"></path>
                    </g>
                    <g id="overlay" transform="translate(0.326070, 16.333984)">
                        <path d="M10.4260777,27.4742222 C11.7703963,27.7642615 15.0669201,27.4828847 15.5809941,28.1915459 C15.729452,28.396198 14.4033333,28.9577197 13.36931,29.5762507 C12.3352867,30.1947817 11.8263091,34.5036407 10.4512283,35.7557323 C9.79055336,36.3573156 9.27755574,35.9236775 8.1903886,35.7557323 C7.10322145,35.5877872 5.28808934,35.6203781 5.31418591,35.3236668 C5.52587593,32.9168053 7.66359863,27.6412074 8.52276163,27.1126546 C8.60483945,27.0621608 8.67293539,27.0338965 8.73602317,27.0230242 C9.02883463,26.9186072 9.54393639,27.2838986 10.4260777,27.4742222 Z" id="highlights9" fill="#D9AD6C" opacity="0.5"></path>
                        <path d="M4.2073472,39.6194165 C4.2073472,39.6194165 3.85035558,39.5242176 3.4433153,39.3082715 C3.41526781,39.3368583 3.39989859,39.3521113 3.39989859,39.3521113 C3.39989859,39.3521113 1.72427382,39.0887241 1.52249781,37.0823963 C1.43917794,36.2539182 1.64968989,35.7679092 2.06300225,35.5163658 C2.97986748,33.3242222 4.79836861,30.5999102 6.39604204,28.569646 C7.53618694,27.1174985 8.89319651,25.7899952 8.85800408,25.8566583 C7.05485631,28.5750718 4.17487725,34.2114011 3.71808008,35.3446015 C3.71808008,35.3446015 3.08143513,35.3016513 2.99055343,35.3056783 C2.89111675,35.4815177 3.36779683,35.6743133 3.32766062,35.8221852 C3.44422728,35.8458237 4.06320269,35.791615 4.18837465,35.8221852 C5.36173117,36.1087497 6.06620981,36.6448936 6.73466278,37.3804292 C7.68208228,37.7942494 9.28565891,38.7346376 9.28565891,39.8284811 C9.28565891,41.3047671 9.02265877,42.5015335 7.53618694,42.5015335 C6.04971512,42.5015335 6.57563658,40.9329292 5.51139476,40.1268938 C5.39638012,40.039784 5.31251252,39.9367971 5.25627929,39.8223823 C4.64323269,39.724983 4.2073472,39.6194165 4.2073472,39.6194165 Z" id="highlights8" fill="#D9AD6C" opacity="0.5"></path>
                        <path d="M23.6067924,34.5444825 C23.8839416,34.4754433 24.1762423,34.4221116 24.4770383,34.3851166 C24.541886,34.3205414 24.6244323,34.2636703 24.7266763,34.2157533 C24.5816278,33.0045407 25.4346309,32.1514994 25.4346309,30.7142537 C25.4346309,29.277008 25.0905789,26.7792777 25.3446826,26.7792777 C25.5987863,26.7792777 26.1009725,27.9596803 26.1009725,27.9596803 C26.1009725,27.9596803 26.2650945,28.0278044 26.2650945,28.0978706 C26.2650945,28.1679368 26.6609878,30.5917225 26.6183558,30.7142537 C26.544619,30.9261853 26.5087518,30.8389985 26.5087518,30.8389985 C26.6331112,31.7164578 27.0399033,33.8823371 26.9009657,33.8902669 C25.9449179,33.9843459 26.2342685,34.3546865 26.2342685,34.3546865 C26.2342685,34.3546865 24.7266763,34.7126876 24.7266763,35.8286241 C24.9830963,36.0344365 25.1008899,36.1548112 25.3446826,36.4496052 C25.5884752,36.7443992 25.6989682,36.9805416 25.8201165,37.2766375 C25.8759756,37.3478261 24.8913544,37.8455943 24.4770383,38.445467 C23.7297354,39.4679274 24.6776367,41.6996178 23.1294954,41.6996178 C21.3553194,41.6996178 19.9170655,40.2426848 19.9170655,38.445467 C19.9170655,37.0878992 20.737714,35.9244934 21.9039004,35.4365307 C22.2988131,35.0391709 22.8558455,34.7315472 23.6067924,34.5444825 Z" id="highlights7" fill="#D9AD6C" opacity="0.5"></path>
                        <path d="M7.00758758,45.8080736 C5.69927283,44.8968597 4.94969017,43.6850178 4.94969017,43.6850178 C4.94969017,43.6850178 5.67468586,43.3881126 5.67252342,43.3841106 C5.67252342,43.3841106 2.56628485,42.4383005 1.91147464,41.3471088 C1.25666444,40.2559171 1.78741458,38.9665506 1.78741458,38.9665506 C0.720985486,39.7628641 0,40.9807189 0,42.3456054 C0,43.5933473 1.18105739,45.3363438 2.02933966,46.1286123 C2.22575971,46.3120624 2.19144195,46.2087662 2.25328129,45.9347114 C3.52463214,46.7325677 6.37303278,48.2479924 8.46299017,48.8868716 C8.54380521,49.4655587 8.87457128,49.9759241 9.40227046,50.2332116 C10.290787,50.6664209 10.5821444,49.818779 11.063333,48.8325358 C11.2392086,48.4720615 11.4161015,48.1429637 11.5263877,47.8493099 C11.7178402,47.3395386 11.1794238,48.6260482 10.0380042,47.9668717 C8.89658458,47.3076952 9.41084821,46.790147 9.40227046,46.7861469 C9.40227046,46.7861469 8.31590234,46.7192874 7.00758758,45.8080736 Z" id="highlights6" fill="#D9AD6C" opacity="0.5"></path>
                        <path d="M22.0356601,45.177749 C24.176016,44.8812105 25.0914034,44.7990174 26.301046,44.2212633 C26.4996075,44.4169656 27.1208977,44.4880772 26.8528219,44.1730639 C26.4578154,43.7088955 25.7756076,43.3515373 24.8672386,42.9650719 C22.799815,42.0854869 20.8946725,41.5072875 20.9674257,41.5682889 C20.7286611,41.913016 20.4605216,42.2263977 20.1397358,42.4803097 C18.8525744,43.4991379 16.3847998,44.3934226 15.0712412,45.9318069 C15.0546175,45.9310483 15.0375599,45.9306654 15.0200589,45.9306654 C13.889558,45.9306654 12.3790643,47.5283635 12.3790643,48.7832067 C12.3790643,50.0380498 12.2534545,51.0553012 13.3839554,51.0553012 C13.8567038,51.0553012 13.6991323,48.8378877 13.933277,47.9758268 C14.1674217,47.1137658 15.4923023,46.7691777 15.6157561,46.3095933 C15.6157561,46.3095933 19.8953042,45.4742875 22.0356601,45.177749 Z" id="highlights5" fill="#D9AD6C" opacity="0.5"></path>
                        <path d="M27.4594326,17.221711 C27.5484434,17.3121654 27.6641392,17.3602281 27.8132838,17.3602281 C28.7820823,17.3602281 30.0992758,15.3322676 30.0992758,12.8306516 C30.0992758,10.3290356 28.7820823,8.30107518 27.8132838,8.30107518 C27.6641392,8.30107518 27.5484434,8.34913787 27.4594326,8.43959226 C27.4609286,8.43806834 27.4624296,8.4365663 27.4639344,8.43507616 C28.3432106,8.92585479 29.2918272,10.7076945 29.2918272,12.8306516 C29.2918272,14.9536087 28.3432106,16.7354484 27.4639344,17.2262271 C27.4624296,17.2247369 27.4609286,17.2232349 27.4594315,17.221721 L27.4594326,17.221711 Z" id="highlights4" fill="#D9AD6C" opacity="0.5"></path>
                        <path d="M26.8255766,5.95838115 C26.6647403,5.90722921 26.5138694,5.88071532 26.3766543,5.88071532 C24.8901825,5.88071532 25.5692057,8.99230779 25.5692057,12.8306516 C25.5692057,16.6689954 24.8901825,19.7805879 26.3766543,19.7805879 C26.5138694,19.7805879 26.6647403,19.754074 26.8255766,19.7029221 C25.8172054,19.1999376 26.3766543,16.3146807 26.3766543,12.8306516 C26.3766543,9.34662253 25.8172054,6.46136568 26.8255766,5.95838115 L26.8255766,5.95838115 Z" id="highlights3" fill="#D9AD6C" opacity="0.5"></path>
                        <path d="M16.0795254,27.5060392 C16.6838838,27.6708365 16.8602636,27.8306843 16.8602636,27.8306843 C17.0107301,27.7826555 17.1099357,27.7022795 17.1469301,27.5812764 C17.403873,26.5429484 17.6080634,26.1949582 17.6080634,26.1949582 C17.6080634,26.1949582 16.4572647,26.1658585 16.4572647,25.5031369 C16.4572647,24.8404152 17.6080634,24.6207346 17.6080634,24.6207346 C17.6080634,24.6207346 16.8130652,22.2914798 17.1459805,21.4646141 C17.9649541,21.2832014 18.5352962,21.0586467 19.2057742,20.8293985 C14.3571754,21.6727605 9.34884732,22.2868032 6.21618181,21.8453927 C6.61743774,21.9643648 7.00940378,22.0665425 7.38720285,22.1515602 C7.94393558,22.6057972 8.53544308,23.0233554 9.1542319,23.3997495 C8.97642239,24.2223817 9.12352393,24.8506468 9.54679266,25.3150422 C9.47871427,25.4155366 8.83351825,26.6170125 8.67188139,27.0202314 C8.67188139,27.0202314 9.26908052,26.8795986 9.62273636,26.8795986 C9.97639219,26.8795986 10.7683231,27.0452483 11.2519949,27.0924065 C11.5561452,27.1220612 13.241076,27.197016 14.5425542,27.3044428 C15.8440324,27.4118696 15.9511003,27.4710201 16.0795254,27.5060392 Z" id="highlights2" fill="#D9AD6C" opacity="0.5"></path>
                        <path d="M19.9406433,3.66669275 C19.4082771,3.4542799 18.9352346,3.28570109 18.5462066,3.1685092 C19.5370255,1.17096721 24.3536653,1.94608193 23.2994945,1.45566445 C21.3008671,0.525870327 19.1152184,0 16.9564206,0 C14.6121082,0 12.255907,0.620134259 10.1487053,1.7042391 C14.8662626,2.1306146 18.925424,3.89261099 19.9406433,3.66669275 Z" id="highlights1" fill="#D9AD6C" opacity="0.5"></path>
                        <path d="M16.8628887,27.8370959 C17.0271183,27.7480709 17.1270797,27.6614937 17.1469301,27.5812764 C17.403873,26.5429484 17.6080634,26.1949582 17.6080634,26.1949582 C17.6080634,26.1949582 16.4572647,26.1658585 16.4572647,25.5031369 C16.4572647,24.8404152 17.6080634,24.6207346 17.6080634,24.6207346 C17.6080634,24.6207346 16.8130652,22.2914798 17.1459805,21.4646141 C17.9649541,21.2832014 18.5352962,21.0586467 19.2057742,20.8293985 C20.1861495,20.3733741 24.6808266,18.1797268 25.4164056,17.804314 C25.4380771,19.0271023 25.6451737,19.7805879 26.3766543,19.7805879 C26.5138694,19.7805879 26.6647403,19.754074 26.8255766,19.7029221 C25.8172054,19.1999376 26.3766543,16.3146807 26.3766543,12.8306516 C26.3766543,9.34662253 25.8172054,6.46136568 26.8255766,5.95838115 L26.8255766,5.95838115 C26.6647403,5.90722921 26.5138694,5.88071532 26.3766543,5.88071532 C24.8901825,5.88071532 25.5692057,8.99230779 25.5692057,12.8306516 C25.5692057,14.7552313 25.3984919,16.4970978 25.4156432,17.7556189 C25.1217982,17.0909964 25.4336848,15.0221438 25.4346309,12.4584266 C25.4355966,9.8417659 25.138331,8.78790741 25.4346309,6.73007116 C25.4346309,6.73007116 22.931099,4.98779301 19.9406433,3.66669275 C19.4134831,3.43624962 18.9352346,3.28570109 18.5462066,3.1685092 C19.5370255,1.17096721 24.3536653,1.94608193 23.2994945,1.45566445 C27.9065514,3.59894254 31.5198641,7.88848341 31.5198641,12.8306516 C31.5198641,15.8449081 30.1757662,18.616397 28.0818869,20.8062487 L29.5630205,20.9699912 C31.2382435,21.0284711 31.2384648,22.847267 31.1270117,26.0377688 L31.1062537,41.7017142 C31.0856012,42.2929213 30.5493086,42.804394 29.6902068,43.2249655 L29.6902068,43.2249655 C29.426806,44.4999077 28.7344946,45.8783677 27.6649224,46.4329165 C27.1091413,46.7210764 27.0383284,46.6332013 27.0488085,46.3389764 C24.6240263,47.4971102 18.0154972,49.9395045 15.345848,49.4334704 C15.0938895,50.371442 14.3108709,51.0553012 13.3839554,51.0553012 C12.2534545,51.0553012 12.3790643,50.0380498 12.3790643,48.7832067 C12.3790643,47.5283635 13.889558,45.9306654 15.0200589,45.9306654 C15.0375599,45.9306654 15.0546175,45.9310483 15.0712412,45.9318069 C15.1129156,45.8829996 15.1557517,45.8348408 15.199675,45.7873056 C15.0030846,45.8126888 14.7983343,45.8352555 14.5846431,45.8548849 C13.1980138,45.9822588 11.9485452,45.9627495 10.8375524,45.7954477 C10.9474134,46.0676789 11.0454552,46.3573111 11.119135,46.649465 C11.1277128,46.6534652 11.1362708,46.6575464 11.1448083,46.661709 C11.6743183,46.9198794 11.714667,47.2910475 11.5589809,47.7575834 C11.6246759,47.5389935 11.0850419,48.5715421 10.0380042,47.9668717 C8.89658458,47.3076952 9.41084821,46.790147 9.40227046,46.7861469 C9.40227046,46.7861469 8.31590234,46.7192874 7.00758758,45.8080736 C5.69927283,44.8968597 4.94969017,43.6850178 4.94969017,43.6850178 C4.94969017,43.6850178 5.67468586,43.3881126 5.67252342,43.3841106 C5.67252342,43.3841106 2.56628485,42.4383005 1.91147464,41.3471088 C1.25666444,40.2559171 1.78741458,38.9665506 1.78741458,38.9665506 C0.720985486,39.7628641 0,40.9807189 0,42.3456054 C0,43.5933473 1.18105739,45.3363438 2.02933966,46.1286123 C2.22575971,46.3120624 2.19144195,46.2087662 2.25328129,45.9347114 C3.52463214,46.7325677 6.37303278,48.2479924 8.46299017,48.8868716 C8.54380521,49.4655587 8.87457128,49.9759241 9.40227046,50.2332116 C10.290787,50.6664209 10.5821444,49.818779 11.063333,48.8325358 C11.2392086,48.4720615 11.4161015,48.1429637 11.5263877,47.8493099 C11.4161015,48.1429637 11.2392086,48.4720615 11.063333,48.8325358 C10.5821444,49.818779 10.290787,50.6664209 9.40227046,50.2332116 C8.87457128,49.9759241 8.54380521,49.4655587 8.46299017,48.8868716 C6.37303278,48.2479924 3.52463214,46.7325677 2.25328129,45.9347114 C2.19144195,46.2087662 2.22575971,46.3120624 2.02933966,46.1286123 C1.18105739,45.3363438 0,43.5933473 0,42.3456054 C0,40.8080565 0.91493721,39.4570923 2.20795846,38.6851359 C1.88270192,38.3449265 1.59837916,37.8369105 1.52249781,37.0823963 C1.48083788,36.6681572 1.51263589,36.3395355 1.60651294,36.0830305 C1.51263589,36.3395355 1.48083788,36.6681572 1.52249781,37.0823963 C1.72427382,39.0887241 3.39989859,39.3521113 3.39989859,39.3521113 C3.39989859,39.3521113 3.41526781,39.3368583 3.4433153,39.3082715 C3.85035558,39.5242176 4.2073472,39.6194165 4.2073472,39.6194165 C4.2073472,39.6194165 4.64323269,39.724983 5.25627929,39.8223823 C5.31251252,39.9367971 5.39638012,40.039784 5.51139476,40.1268938 C6.57563658,40.9329292 6.04971512,42.5015335 7.53618694,42.5015335 C9.02265877,42.5015335 9.28565891,41.3047671 9.28565891,39.8284811 C9.28565891,38.7346376 7.68208228,37.7942494 6.73466278,37.3804292 C6.06620981,36.6448936 5.36173117,36.1087497 4.18837465,35.8221852 C4.06320269,35.791615 3.44422728,35.8458237 3.32766062,35.8221852 C3.36779683,35.6743133 2.89111675,35.4815177 2.99055343,35.3056783 C3.08143513,35.3016513 3.71808008,35.3446015 3.71808008,35.3446015 C4.1726094,34.2170271 7.02631975,28.6309258 8.83106879,25.8973613 C9.03837323,25.7333256 9.19759384,25.6457255 9.29511326,25.649437 C9.30396894,25.649774 9.31038461,25.6533919 9.31447129,25.6601869 C9.39118242,25.545508 9.46863735,25.4304118 9.54679264,25.3150422 C9.47274657,25.424346 8.86597149,26.6663515 8.66808271,27.0408554 C8.62393426,27.0562177 8.57632525,27.0797026 8.52276163,27.1126546 C7.66359863,27.6412074 5.52587593,32.9168053 5.31418591,35.3236668 C5.28808934,35.6203781 7.10322145,35.5877872 8.1903886,35.7557323 C9.27755574,35.9236775 9.79055336,36.3573156 10.4512283,35.7557323 C11.8263091,34.5036407 12.1445767,30.2220976 13.1786001,29.6035666 C14.0786691,29.0651642 15.3445544,28.5492603 15.5595187,28.2896538 C15.5614647,28.2891548 15.5634095,28.2886556 15.565353,28.2881563 C15.5589901,28.1596236 15.4250177,27.9555579 14.7180888,27.8294069 C14.1301444,27.7244886 11.7084823,27.6739195 10.7199636,27.5295468 C10.0929029,27.4379649 9.32821213,27.1313728 9.05878941,27.0482638 C8.78936669,26.9651548 8.72148603,27.0026869 8.72148603,27.0026869 C8.72148603,27.0026869 9.24871698,26.8882166 9.69692322,26.8882166 C9.83445977,26.8882166 11.316887,27.1193261 12.3080777,27.1615925 C13.2992685,27.2038588 14.4706509,27.2375029 15.6501751,27.4145343 C16.4474832,27.5342 16.7503351,27.7256108 16.8628887,27.8370959 Z M6.45769297,28.4915078 C7.30254416,27.4235398 8.08111379,26.5555357 8.62557912,26.0708306 C8.20410069,26.4873556 7.28235294,27.451349 6.45769297,28.4915078 Z M23.6067924,34.5444825 C22.8558455,34.7315472 22.2988131,35.0391709 21.9039004,35.4365307 C20.737714,35.9244934 19.9170655,37.0878992 19.9170655,38.445467 C19.9170655,40.2426848 21.3553194,41.6996178 23.1294954,41.6996178 C24.6776367,41.6996178 23.7297354,39.4679274 24.4770383,38.445467 C24.8913544,37.8455943 25.8759756,37.3478261 25.8201165,37.2766375 C25.6989682,36.9805416 25.5884752,36.7443992 25.3446826,36.4496052 C25.1008899,36.1548112 24.9830963,36.0344365 24.7266763,35.8286241 C24.7266763,34.7126876 26.2342685,34.3546865 26.2342685,34.3546865 C26.2342685,34.3546865 25.9449179,33.9843459 26.9009657,33.8902669 C27.0399033,33.8823371 26.6331112,31.7164578 26.5087518,30.8389985 C26.5087518,30.8389985 26.544619,30.9261853 26.6183558,30.7142537 C26.6609878,30.5917225 26.2650945,28.1679368 26.2650945,28.0978706 C26.2650945,28.0278044 26.1009725,27.9596803 26.1009725,27.9596803 C26.1009725,27.9596803 25.5987863,26.7792777 25.3446826,26.7792777 C25.0905789,26.7792777 25.4346309,29.277008 25.4346309,30.7142537 C25.4346309,32.1514994 24.5816278,33.0045407 24.7266763,34.2157533 C24.6244323,34.2636703 24.541886,34.3205414 24.4770383,34.3851166 C24.1762423,34.4221116 23.8839416,34.4754433 23.6067924,34.5444825 Z M22.0356601,45.177749 C19.8953042,45.4742875 15.6157561,46.3095933 15.6157561,46.3095933 C15.4923023,46.7691777 14.1674217,47.1137658 13.933277,47.9758268 C13.6991323,48.8378877 13.8567038,51.0553012 13.3839554,51.0553012 C12.2534545,51.0553012 12.3790643,50.0380498 12.3790643,48.7832067 C12.3790643,47.5283635 13.889558,45.9306654 15.0200589,45.9306654 C15.0375599,45.9306654 15.0546175,45.9310483 15.0712412,45.9318069 C16.3847998,44.3934226 18.8525744,43.4991379 20.1397358,42.4803097 C20.4605216,42.2263977 20.7286611,41.913016 20.9674257,41.5682889 C20.8946725,41.5072875 22.799815,42.0854869 24.8672386,42.9650719 C25.7756076,43.3515373 26.4578154,43.7088955 26.8528219,44.1730639 C27.1208977,44.4880772 26.4996075,44.4169656 26.301046,44.2212633 C25.0914034,44.7990174 24.176016,44.8812105 22.0356601,45.177749 Z M27.4594326,17.221711 C27.5484434,17.3121654 27.6641392,17.3602281 27.8132838,17.3602281 C28.7820823,17.3602281 30.0992758,15.3322676 30.0992758,12.8306516 C30.0992758,10.3290356 28.7820823,8.30107518 27.8132838,8.30107518 C27.6641392,8.30107518 27.5484434,8.34913787 27.4594326,8.43959226 C27.4609286,8.43806834 27.4624296,8.4365663 27.4639344,8.43507616 C28.3432106,8.92585479 29.2918272,10.7076945 29.2918272,12.8306516 C29.2918272,14.9536087 28.3432106,16.7354484 27.4639344,17.2262271 C27.4624296,17.2247369 27.4609286,17.2232349 27.4594315,17.221721 L27.4594326,17.221711 Z" id="shade" fill="#000507" opacity="0.751403974"></path>
                    </g>
                </g>
                <g id="bonfire" transform="translate(517.547471, 162.504132)">
                    <polygon id="base_bg" fill="#A68F74" transform="translate(35.223678, 10.925967) rotate(-9.000000) translate(-35.223678, -10.925967) " points="18.5184894 13.5160555 51.0648166 18.1369928 56.5195536 11.5731818 53.4829332 10.467017 47.574942 8.50248229 45.8768019 9.18625143 41.0314577 7.16965311 33.6045681 6.74967308 28.8476809 3.71494137 22.7010888 5.60195907 17.5996851 4.46581475 13.9278027 5.88840896"></polygon>
                    <polygon id="base_fg" fill="url(#linearGradient-10)" points="0.107797495 16.461168 21.4585704 20.3721958 25.4037611 20.0881502 29.8011799 20.3473918 33.1932485 21.7300156 36.7670947 20.1953674 42.1081896 19.1688026 45.0224601 19.9913346 50.8333921 19.8081052 53.768473 20.5258204 60.0620486 19.5176586 63.8591645 20.0073372 70.2960123 19.2864215 73.46241 19.7248919 76.7080476 19.3696348 73.2398977 16.9980542 71.2132751 15.3905962 68.4014564 15.3369876 66.2475696 12.8629905 62.3295927 12.535738 60.9849142 9.76089257 58.0306236 9.70728396 56.3153581 7.99740952 55.205198 9.21520498 52.7751718 11.1027079 51.0479003 10.5994272 48.2192731 11.1363133 45.5307165 11.8676307 41.9593145 11.7068049 39.6997744 11.0891058 37.3441858 11.9708473 34.4179093 10.6002273 32.0439115 11.6539964 28.7902698 10.5498192 27.2695025 11.3315447 24.8955046 10.5906257 22.3958434 12.0308569 19.9001841 11.0450987 17.715882 11.0450987 15.2794526 10.417798 15.4995637 8.1038266 12.7029526 9.2552114 10.8548201 11.0707028 8.14465265 11.1987234 4.59486153 14.3032216 2.50740826 14.6200725"></polygon>
                    <polygon id="ridge" fill="#BFA874" points="13.1233971 9.08211142 14.1789278 8.64754184 15.4079261 8.17105644 15.4949524 8.15230398 15.2794526 10.417798 17.715882 11.0450987 19.9001841 11.0450987 22.3958434 12.0308569 24.8955046 10.5906257 27.2695025 11.3315447 28.7902698 10.5498192 32.0439115 11.6539964 34.4179093 10.6002273 37.3441858 11.9708473 39.6997744 11.0891058 41.9593145 11.7068049 45.5307165 11.8676307 48.2192731 11.1363133 51.0479003 10.5994272 52.7751718 11.1027079 55.205198 9.21520498 56.1018644 8.23160241 56.4982674 8.28788814 56.2981242 9.94434264 53.1623045 11.817666 50.9263986 11.2616201 47.0444247 11.8479692 46.2449477 12.8111006 43.0740664 12.2357044 39.899898 11.4434394 37.53872 12.9589657 34.4350401 11.662864 32.1049062 12.5580869 29.260901 11.4887117 27.0695525 12.1845905 25.0323288 11.0670223 22.5067997 13.195915 19.8742596 11.7891882 17.7278338 11.4514716 13.9178092 10.973922 14.3513309 9.74390324"></polygon>
                </g>
                <g id="lenny" transform="translate(443.435801, 174.622686) scale(-1, 1) translate(-443.435801, -174.622686) translate(358.935801, 126.622686)">
                    <polygon id="shadow" fill="#040B0C" opacity="0.827672101" transform="translate(85.886045, 76.429381) scale(-1, 1) translate(-85.886045, -76.429381) " points="168.431287 61.395793 119.347409 81.9166561 3.34080213 95.6003431 133.612626 57.2584196"></polygon>
                    <g id="body" transform="translate(0.000000, 24.013330)">
                        <path d="M22.8513343,0.0467864569 C19.5291109,0.0467864569 2.47821957,27.0034612 2.90635804,27.4560996 C1.2043411,28.4831648 0,30.2805828 0,32.3262461 C0,33.9863298 1.55463778,36.3053351 2.67124031,37.3594249 C2.92979001,37.6034998 16.9182597,40.3866337 24.4828902,40.542078 C32.0475208,40.6975223 35.6840367,38.1476808 36.415617,37.7642927 C38.2480991,36.8039717 39.2392971,34.0809404 39.2392971,32.0329393 C39.2392971,29.9849383 37.9196011,27.9172795 37.8142891,27.7980768 C39.0643701,27.0007 39.9999652,24.9524083 39.9999652,23.4549488 C39.9999652,22.4404734 36.8230203,14.6347501 35.2124958,12.0566155 C34.3069697,8.86011394 33.0324551,8.25524432 32.3683602,8.2807911 C32.3180879,8.282725 32.2681766,8.3091686 32.2193471,8.35774455 C29.7642851,3.54390453 26.2948834,0.0467864569 22.8513343,0.0467864569 Z" fill="url(#linearGradient-11)"></path>
                        <path d="M38.109095,27.7980768 C39.359176,27.0007 40.2947711,24.9524083 40.2947711,23.4549488 C40.2947711,22.4404734 37.1178262,14.6347501 35.5073016,12.0566155 C35.0811736,10.5523862 34.0407966,16.676247 33.2585661,23.5192643 C32.3785494,31.2177234 38.214407,27.9172795 38.109095,27.7980768 Z" id="upper" fill="url(#linearGradient-12)"></path>
                        <path d="M32.8408551,39.5078531 C35.0798419,38.80563 36.3164208,37.9707713 36.7104229,37.7642927 C38.542905,36.8039717 39.534103,34.0809404 39.534103,32.0329393 C39.534103,29.9849383 38.214407,27.9172795 38.109095,27.7980768 C38.109095,27.7980768 33.9930448,16.9594086 33.205484,23.9882816 C32.356771,31.5629297 31.8458339,39.8199259 32.8408551,39.5078531 Z" id="butt" fill="url(#linearGradient-13)"></path>
                        <path d="M38.109095,27.7980768 C39.4002803,27.1924866 41.2858043,23.6556107 40.589577,23.1591052 C39.9262373,22.6860531 36.7250062,22.893118 36.7250062,22.893118 C36.7250062,22.893118 36.7250062,26.7556816 38.109095,27.7980768 Z" id="elbow" fill="url(#linearGradient-14)"></path>
                        <path d="M3.86599649,27.6398782 C1.29563776,26.9598021 0,30.2805828 0,32.3262461 C0,33.9863298 1.89211797,37.3840126 2.56009804,37.5203818 C3.22807811,37.656751 1.03778127,34.1475269 1.4414661,31.3606928 C1.84515094,28.5738586 6.43635521,28.3199543 3.86599649,27.6398782 Z" id="knee" fill="url(#linearGradient-15)"></path>
                        <path d="M12.3363896,9.30929125 C9.39213586,12.6243212 7.28181171,16.6873216 5.17275182,19.7902118 C3.06369192,22.893102 1.98363111,22.9310476 1.85929909,23.7319186 C1.50780756,25.9960128 1.6531612,26.6602057 2.72137833,27.4560996 C3.78959546,28.2519936 8.01302563,30.7234861 10.6945485,27.4560996 C13.3760715,24.1887132 16.4211194,4.71016258 12.3363896,9.30929125 Z" id="upper" fill="url(#linearGradient-16)"></path>
                        <path d="M3.00281392,22.8834761 C2.78098511,21.4754958 1.6209569,22.828681 1.6209569,25.8152642 C1.6209569,28.8018475 4.68087224,28.9147058 6.81106428,29.0806826 C8.37848198,29.2028101 9.79473836,28.8191857 11.0271925,27.3174629 C12.2596467,25.8157402 9.63352796,27.7012235 7.36695239,26.9865826 C5.10037683,26.2719416 3.28046107,24.6457436 3.00281392,22.8834761 Z" id="elbow" fill="url(#linearGradient-17)"></path>
                    </g>
                    <g id="head" transform="translate(5.127981, 0.000000)">
                        <path d="M17.3124903,33.3510548 C25.5068174,33.3510548 26.6306016,32.8890717 28.954816,30.1965164 C33.2988688,27.0651684 34.8841678,24.2942157 34.8841678,17.0708025 C34.8841678,7.10229065 26.5838844,0 17.1919265,0 C12.2759962,0 7.32035046,2.09389535 3.71337031,5.44168219 C0.429161175,8.48989196 0.100941738,12.5776246 0.100941738,17.0708025 C0.100941738,21.5897694 0.454097704,25.6986235 3.77003054,28.7523064 C4.73425232,29.6402699 5.79358914,30.4390128 6.92182657,31.1326748 C7.99378953,33.3510548 13.7300623,33.3510548 17.3124903,33.3510548 Z" id="helmet" fill="url(#linearGradient-18)"></path>
                        <path d="M10.1882061,32.3021476 C6.85263414,31.8519885 6.92182657,31.1326748 6.92182657,31.1326748 C6.48566859,33.1722585 7.53470716,34.3138156 9.65373035,34.8199251 C11.6025088,35.2853733 11.7072614,32.5071549 10.1882061,32.3021476 Z" id="neck" fill="url(#linearGradient-19)"></path>
                    </g>
                    <g id="backpack" transform="translate(11.337096, 27.028771)">
                        <path d="M22.8471207,33.5944005 L22.074309,10.2152651 C22.074309,5.4477128 21.9807118,2.7332162 19.5184336,2.7332162 L6.92503042,0.620433386 C4.45877896,0.620433386 1.50994254,5.45539355 1.50994254,10.2152651 L0.753865007,35.6719213 C0.753865007,37.6439416 6.41138389,39.0484148 10.8443106,38.9712029 C15.2772373,38.8939909 22.8471207,36.3854287 22.8471207,33.5944005 Z" id="backpack_shade" fill="url(#linearGradient-20)" transform="translate(11.800493, 19.797335) rotate(2.000000) translate(-11.800493, -19.797335) "></path>
                        <path d="M26.5937896,34.1403335 L25.7825546,9.59881391 C25.7825546,4.59422428 25.6843039,1.74476596 23.099604,1.74476596 L7.52709644,0.551801469 C4.93822574,0.551801469 4.19575101,4.60228691 4.19575101,9.59881391 L3.40208216,36.3211464 C3.40208216,41.325736 26.5937896,39.1368606 26.5937896,34.1403335 Z" fill="url(#linearGradient-21)" transform="translate(14.997936, 19.853304) rotate(2.000000) translate(-14.997936, -19.853304) "></path>
                    </g>
                    <g id="hinge" transform="translate(5.815675, 17.429760) scale(-1, 1) translate(-5.815675, -17.429760) translate(2.065675, 8.179760)">
                        <path d="M1.41713701,18.4933694 C3.37379491,18.4933694 7.4399693,14.3534877 7.4399693,9.24668471 C7.4399693,4.13988176 3.37379491,0 1.41713701,0 C-0.539520887,0 0.354284252,4.13988176 0.354284252,9.24668471 C0.354284252,14.3534877 -0.539520887,18.4933694 1.41713701,18.4933694 Z" id="hinge4" fill="#1B2826"></path>
                        <path d="M2.00805803,0.103332083 C4.08983826,0.772538124 7.4399693,4.61128705 7.4399693,9.24668471 C7.4399693,13.8820824 4.08983826,17.7208313 2.00805803,18.3900373 C0.680728767,17.7208313 1.41713701,13.8820824 1.41713701,9.24668471 C1.41713701,4.61128705 0.680728767,0.772538124 2.00805803,0.103332083 L2.00805803,0.103332083 Z" id="hinge3" fill="#304742"></path>
                        <path d="M3.30818699,15.2731522 C4.58342623,15.2731522 6.3172613,12.5750108 6.3172613,9.24668471 C6.3172613,5.91835862 4.58342623,3.22021721 3.30818699,3.22021721 C2.03294774,3.22021721 2.61547951,5.91835862 2.61547951,9.24668471 C2.61547951,12.5750108 2.03294774,15.2731522 3.30818699,15.2731522 Z" id="hinge2" fill="#131C1A"></path>
                        <path d="M2.84833483,15.0948679 C2.19595171,14.4419014 2.61547951,12.0712163 2.61547951,9.24668471 C2.61547951,6.42215311 2.19595171,4.05146801 2.84833483,3.39850155 C4.00573498,4.05146801 5.25440854,6.42215311 5.25440854,9.24668471 C5.25440854,12.0712163 4.00573498,14.4419014 2.84833483,15.0948679 L2.84833483,15.0948679 Z" id="hinge1" fill="#1B2828"></path>
                    </g>
                    <g id="overlay">
                        <path d="M40.4303912,47.0888703 C40.4930518,47.1140351 40.5466328,47.1418097 40.589577,47.1724348 C41.2858043,47.6689403 39.4239163,51.1876924 38.109095,51.8114064 C39.1563425,50.5240401 40.5228213,47.7437148 39.826594,47.2472093 C39.7407055,47.1859591 39.3673596,46.939477 39.2088346,46.899105 C38.8943964,45.6540772 38.6920174,43.4907976 37.4710807,40.7776581 L37.6893947,40.4502696 C38.8318947,43.0355453 39.9215267,45.8521059 40.216728,47.0209644 C40.2959905,47.0411504 40.3677306,47.0637054 40.4303912,47.0888703 C40.4930518,47.1140351 40.5466328,47.1418097 40.589577,47.1724348 C41.2858043,47.6689403 39.4239163,51.1876924 38.109095,51.8114064 C38.214407,51.9306091 39.534103,53.9982679 39.534103,56.046269 C39.534103,57.8095252 38.7993676,60.0731544 37.4255717,61.2813941 L37.42504,61.5649512 C37.2810425,65.6870818 21.4093947,67.3457293 15.9729253,64.9854997 C13.9192859,64.6567523 12.3492881,64.0556354 11.777391,63.1515641 C6.98574792,62.3777678 2.99989685,61.5432328 2.68733668,61.3830896 C2.69231895,61.4987133 2.65514119,61.5531146 2.56009804,61.5337114 C2.02372921,61.4242109 0.698081658,59.2119362 0.196522447,57.4849552 C0.0721480971,57.0854051 0,56.6972007 0,56.3395757 C0,56.208153 0.00497075069,56.0777549 0.0147248724,55.9485199 C0.127367558,54.4064777 0.886068549,52.3900901 2.28345177,51.7598694 C2.07836547,51.5333727 1.91274175,51.2649602 1.79838961,50.9459687 C1.91274175,51.2649602 2.07836547,51.5333727 2.28345177,51.7598694 C0.886068549,52.3900901 0.127367558,54.4064777 0.0147248724,55.9485199 C0.00497075069,56.0777549 -1.42108547e-14,56.208153 -1.42108547e-14,56.3395757 C-1.42108547e-14,56.6972007 0.0721480971,57.0854051 0.196522447,57.4849552 C0.676510651,59.1376624 1.91122688,61.234818 2.45733692,61.3590331 C2.45733692,61.3590331 0.618242044,57.508162 0.952719674,55.0897129 C1.20105052,53.9192281 3.22231501,52.4501478 3.22231501,52.4501478 C3.22231501,52.4501478 2.5792374,50.8310177 2.69438658,49.8285939 C2.80953576,48.82617 3.5636289,48.3208918 3.5636289,48.3208918 C3.5636289,48.3208918 5.4520894,47.2472093 7.10946771,44.9359575 C8.76684603,42.6247056 9.9828294,38.7307774 10.5166653,37.7823444 C11.7053777,35.670433 13.3322517,34.5850117 12.575117,33.7057868 C12.575117,33.7057868 13.0503458,34.0650307 13.3322517,33.0341382 C13.6141576,32.0032457 12.9842712,31.8319195 12.9842712,31.8319195 L13.8088612,30.3361482 C8.28714771,28.893337 7.52659181,26.557496 7.52659181,26.557496 C5.4658421,24.8338459 2.56524277,22.2580518 2.45733692,17.7443182 C2.29176048,10.8182072 8.03769463,8.19931849 8.03769463,8.19931849 L10.5166653,7.93160904 C13.425856,2.2058476 21.1890992,5.17748747e-09 22.3199079,3.55271368e-14 C17.4039777,1.13032485e-09 12.4483319,2.09389535 8.84135174,5.44168219 C7.72566208,6.47719971 6.95110887,7.63268354 6.41467124,8.88327486 C4.43831761,10.2737722 2.12570551,13.575143 2.12570551,17.4264443 C2.12570551,21.6251811 4.87439136,25.1702906 6.93939218,26.2982815 C7.43687863,27.1745119 8.07652554,27.9957895 8.89801196,28.7523064 C9.86223375,29.6402699 10.9215706,30.4390128 12.049808,31.1326748 C12.0693442,31.1731042 12.0904297,31.2127967 12.1130231,31.2517659 C12.0791876,31.2378112 12.113057,31.2962717 12.1852858,31.3665168 C12.1341498,31.2914451 12.0888805,31.2135336 12.049808,31.1326748 C10.9215706,30.4390128 9.86223375,29.6402699 8.89801196,28.7523064 C8.07652554,27.9957895 7.43687863,27.1745119 6.93939218,26.2982815 C4.87439136,25.1702906 2.12570551,21.6251811 2.12570551,17.4264443 C2.12570551,13.575143 4.43831761,10.2737722 6.41467124,8.88327486 C6.95110887,7.63268354 7.72566208,6.47719971 8.84135174,5.44168219 C12.4483319,2.09389535 17.4039777,7.10542736e-15 22.3199079,7.10542736e-15 C31.7118658,7.10542736e-15 40.0121492,7.10229065 40.0121492,17.0708025 C40.0121492,23.4539425 38.7742223,26.360249 35.4886349,29.1107961 C37.646351,29.4960671 37.635644,32.2992258 37.4710807,37.0100796 L37.4655714,39.9483233 C38.6865081,42.6614628 39.9022897,45.7759366 40.216728,47.0209644 C40.2959905,47.0411504 40.3677306,47.0637054 40.4303912,47.0888703 Z M6.47108954,11.4323694 L6.47108954,11.4323694 C7.45241664,11.7467259 6.94182508,14.3104053 6.94182508,17.4264443 C6.94182508,20.5424832 7.45241664,23.1061626 6.47108954,23.4205191 C6.55558917,23.4419353 6.63879204,23.4529118 6.72012929,23.4529118 C7.99536853,23.4529118 7.41283676,20.7547704 7.41283676,17.4264443 C7.41283676,14.0981182 7.99536853,11.3999768 6.72012929,11.3999768 C6.63879204,11.3999768 6.55558917,11.4109532 6.47108954,11.4323694 Z M20.2985627,27.9033939 C19.8826799,27.8247765 17.1149523,28.1303279 16.2321274,30.0066124 C15.3493024,31.882897 14.6173745,48.0661142 14.9798512,48.1346359 C15.342328,48.2031576 17.2463848,31.5104246 17.6209075,30.269144 C17.9954302,29.0278633 20.7144454,27.9820113 20.2985627,27.9033939 Z" id="shade" fill="#070C0F" opacity="0.699999988"></path>
                        <path d="M10.5166653,7.93160904 L8.03769463,8.19931849 C8.03769463,8.19931849 2.29176048,10.8182072 2.45733692,17.7443182 C2.56524277,22.2580518 5.4658421,24.8338459 7.52659181,26.557496 C7.52659181,26.557496 8.28714771,28.893337 13.8088612,30.3361482 L12.9842712,31.8319195 C12.9842712,31.8319195 13.6141576,32.0032457 13.3322517,33.0341382 C13.0503458,34.0650307 12.575117,33.7057868 12.575117,33.7057868 C13.3322517,34.5850117 11.7053777,35.670433 10.5166653,37.7823444 C9.9828294,38.7307774 8.76684603,42.6247056 7.10946771,44.9359575 C5.4520894,47.2472093 3.5636289,48.3208918 3.5636289,48.3208918 C3.5636289,48.3208918 2.80953576,48.82617 2.69438658,49.8285939 C2.5792374,50.8310177 3.22231501,52.4501478 3.22231501,52.4501478 C3.22231501,52.4501478 1.20105052,53.9192281 0.952719674,55.0897129 C0.618242044,57.508162 2.45733692,61.3590331 2.45733692,61.3590331 C1.91122688,61.234818 0.676510651,59.1376624 0.196522447,57.4849552 C0.0721480971,57.0854051 -4.73316543e-30,56.6972007 -4.73316543e-30,56.3395757 C-4.73316543e-30,56.208153 0.00497075069,56.0777549 0.0147248724,55.9485199 C0.127367558,54.4064777 0.886068549,52.3900901 2.28345177,51.7598694 C1.87327917,51.306876 1.6209569,50.6862194 1.6209569,49.8285939 C1.6209569,47.1782465 2.53449129,45.8142172 2.89521182,46.5246474 C3.43798788,46.0222216 4.19473241,45.2424227 5.17275182,43.8035414 C7.27659472,40.7083266 9.38169564,36.6577455 12.3145561,33.3472348 C11.9559742,32.7718259 11.8554845,32.04138 12.049808,31.1326748 C12.049808,31.1326748 12.0408283,31.2260266 12.1852858,31.3665168 C12.1341498,31.2914451 12.0888805,31.2135336 12.049808,31.1326748 C10.9215706,30.4390128 9.86223375,29.6402699 8.89801196,28.7523064 C8.07652554,27.9957895 7.43687863,27.1745119 6.93939218,26.2982815 C4.87439136,25.1702906 2.12570551,21.6251811 2.12570551,17.4264443 C2.12570551,13.575143 4.43831761,10.2737722 6.41467124,8.88327486 C6.95110887,7.63268354 7.72566208,6.47719971 8.84135174,5.44168219 C12.4483319,2.09389535 17.4039777,1.13031774e-09 22.3199079,2.84217094e-14 C21.1890992,5.17748036e-09 13.425856,2.2058476 10.5166653,7.93160904 Z" id="highlight" fill="#D9AE6C" opacity="0.5"></path>
                        <path d="M40.216728,47.0209644 C40.3752529,47.0613364 40.5036885,47.1111846 40.589577,47.1724348 C41.2858043,47.6689403 39.4239163,51.1876924 38.109095,51.8114064 C39.1563425,50.5240401 40.5228213,47.7437148 39.826594,47.2472093 C39.7407055,47.1859591 39.3673596,46.939477 39.2088346,46.899105 C38.8943964,45.6540772 38.6920174,43.4907976 37.4710807,40.7776581 L37.6893947,40.4502696 C38.8318947,43.0355453 39.9215267,45.8521059 40.216728,47.0209644 Z" id="highlight" fill="#D9AE6C" opacity="0.5"></path>
                        <path d="M6.47108954,11.4323694 C6.55558917,11.4109532 6.63879204,11.3999768 6.72012929,11.3999768 C7.99536853,11.3999768 7.41283676,14.0981182 7.41283676,17.4264443 C7.41283676,20.7547704 7.99536853,23.4529118 6.72012929,23.4529118 C6.63879204,23.4529118 6.55558917,23.4419353 6.47108954,23.4205191 C7.45241664,23.1061626 6.94182508,20.5424832 6.94182508,17.4264443 C6.94182508,14.3104053 7.45241664,11.7467259 6.47108954,11.4323694 L6.47108954,11.4323694 Z" id="highlight" fill="#D9AE6C" opacity="0.5"></path>
                        <path d="M20.2985627,27.9033939 C19.8826799,27.8247765 17.1149523,28.1303279 16.2321274,30.0066124 C15.3493024,31.882897 14.6173745,48.0661142 14.9798512,48.1346359 C15.342328,48.2031576 17.2463848,31.5104246 17.6209075,30.269144 C17.9954302,29.0278633 20.7144454,27.9820113 20.2985627,27.9033939 Z" id="highlight" fill="#D9AE6C" opacity="0.5"></path>
                    </g>
                </g>
                <g id="big_plate_right" transform="translate(600.500000, 166.500000)">
                    <polygon id="side" fill="#010505" points="0.34610113 43.5715499 8.19024124 65.2862084 78.1898263 99.3582851 226.186178 161.209861 74.1537969 85.276852"></polygon>
                    <polygon id="face" fill="url(#linearGradient-22)" points="141.95449 2.12900979 121.10107 0.38779084 97.2150493 26.8601773 71.3468433 31.0678276 0.306154657 43.448215 73.8543111 89.2226062 228.618845 162.112553 237.154261 79.1585648 222.34305 43.4852915 195.720025 17.6662697 168.000573 14.2702042"></polygon>
                    <polygon id="highlight" fill="url(#linearGradient-23)" points="121.093848 0.41277935 97.2078274 26.8851658 71.3396215 31.0928162 0.298932815 43.4732035 99.481343 29.1419167"></polygon>
                </g>
                <g id="big_plate_left" transform="translate(312.545752, 194.691626)">
                    <polygon id="side" fill="#010505" points="339.415032 75.3624907 332.840885 83.1847475 151.402822 106.983784 4.24374111 188.118057 129.539147 94.0043992 309.808628 68.7678719"></polygon>
                    <polygon id="plate" fill="url(#linearGradient-24)" points="256.31968 22.7520247 181.74253 11.4321194 146.965954 0.156934899 101.096813 13.0088288 103.847267 35.4904413 0.211525812 189.94414 146.965954 100.009314 339.797821 74.488675"></polygon>
                    <polygon id="shadow" fill="#040A0A" opacity="0.5" points="102.864299 27.4558763 101.096813 13.0088288 146.965954 0.156934899 165.289158 6.09764361 165.382194 6.14815029 102.864299 27.4558763"></polygon>
                    <polygon id="highlight" fill="url(#linearGradient-25)" points="256.31968 22.7498097 181.760026 11.4402003 165.368738 6.13277223 160.543189 7.8217628 178.500986 13.3254331 256.31968 24.8234162 313.181769 57.9829849"></polygon>
                </g>
            </g>
        </g>
    </g>
</svg>